<mxfile host="Electron" modified="2024-07-05T22:22:19.292Z" agent="Mozilla/5.0 (X11; Linux x86_64) AppleWebKit/537.36 (KHTML, like Gecko) draw.io/24.5.3 Chrome/124.0.6367.207 Electron/30.0.6 Safari/537.36" etag="e3uSe_-gz65p9BvkPhrl" version="24.5.3" type="device">
  <diagram name="Page-1" id="fQ_WgQiGJqsnwwl_7qo3">
    <mxGraphModel dx="5000" dy="3633" grid="1" gridSize="10" guides="1" tooltips="1" connect="1" arrows="1" fold="1" page="0" pageScale="1" pageWidth="827" pageHeight="1169" math="0" shadow="0">
      <root>
        <mxCell id="0" />
        <mxCell id="1" parent="0" />
        <mxCell id="6QwXeuThkFD-9IxJBqtr-515" value="" style="rounded=0;whiteSpace=wrap;html=1;fillColor=none;strokeColor=none;" vertex="1" parent="1">
          <mxGeometry x="-170" y="2185" width="2265" height="1630" as="geometry" />
        </mxCell>
        <mxCell id="6QwXeuThkFD-9IxJBqtr-514" value="" style="endArrow=none;html=1;rounded=0;strokeWidth=6;strokeColor=#F2462C;" edge="1" parent="1">
          <mxGeometry width="50" height="50" relative="1" as="geometry">
            <mxPoint x="1440" y="2440" as="sourcePoint" />
            <mxPoint x="1280" y="2440" as="targetPoint" />
          </mxGeometry>
        </mxCell>
        <mxCell id="6QwXeuThkFD-9IxJBqtr-513" value="" style="endArrow=none;html=1;rounded=0;strokeWidth=6;strokeColor=#F2462C;" edge="1" parent="1">
          <mxGeometry width="50" height="50" relative="1" as="geometry">
            <mxPoint x="1425" y="2420" as="sourcePoint" />
            <mxPoint x="1277" y="2420" as="targetPoint" />
          </mxGeometry>
        </mxCell>
        <mxCell id="6QwXeuThkFD-9IxJBqtr-512" value="" style="endArrow=none;html=1;rounded=0;strokeWidth=6;strokeColor=#F2462C;" edge="1" parent="1">
          <mxGeometry width="50" height="50" relative="1" as="geometry">
            <mxPoint x="1425" y="3580" as="sourcePoint" />
            <mxPoint x="1277" y="3580" as="targetPoint" />
          </mxGeometry>
        </mxCell>
        <mxCell id="6QwXeuThkFD-9IxJBqtr-511" value="" style="endArrow=none;html=1;rounded=0;strokeWidth=6;strokeColor=#F2462C;" edge="1" parent="1">
          <mxGeometry width="50" height="50" relative="1" as="geometry">
            <mxPoint x="1440" y="3560" as="sourcePoint" />
            <mxPoint x="1280" y="3560" as="targetPoint" />
          </mxGeometry>
        </mxCell>
        <mxCell id="6QwXeuThkFD-9IxJBqtr-360" value="" style="endArrow=none;html=1;rounded=0;strokeWidth=6;strokeColor=#52A1F0;" edge="1" parent="1">
          <mxGeometry width="50" height="50" relative="1" as="geometry">
            <mxPoint x="320" y="1440" as="sourcePoint" />
            <mxPoint x="505" y="1439.7599999999998" as="targetPoint" />
          </mxGeometry>
        </mxCell>
        <mxCell id="6QwXeuThkFD-9IxJBqtr-361" value="" style="endArrow=none;html=1;rounded=0;strokeWidth=6;strokeColor=#52A1F0;" edge="1" parent="1">
          <mxGeometry width="50" height="50" relative="1" as="geometry">
            <mxPoint x="320" y="1680" as="sourcePoint" />
            <mxPoint x="505" y="1679.7599999999998" as="targetPoint" />
          </mxGeometry>
        </mxCell>
        <mxCell id="6QwXeuThkFD-9IxJBqtr-333" value="" style="endArrow=none;html=1;rounded=0;strokeWidth=6;strokeColor=#F2462C;" edge="1" parent="1">
          <mxGeometry width="50" height="50" relative="1" as="geometry">
            <mxPoint x="1590" y="1200" as="sourcePoint" />
            <mxPoint x="1331" y="1200" as="targetPoint" />
          </mxGeometry>
        </mxCell>
        <mxCell id="6QwXeuThkFD-9IxJBqtr-335" value="" style="endArrow=none;html=1;rounded=0;strokeWidth=6;strokeColor=#F2462C;" edge="1" parent="1">
          <mxGeometry width="50" height="50" relative="1" as="geometry">
            <mxPoint x="1573" y="1180" as="sourcePoint" />
            <mxPoint x="1324" y="1180" as="targetPoint" />
          </mxGeometry>
        </mxCell>
        <mxCell id="6QwXeuThkFD-9IxJBqtr-334" value="" style="endArrow=none;html=1;rounded=0;strokeWidth=6;strokeColor=#F2462C;" edge="1" parent="1">
          <mxGeometry width="50" height="50" relative="1" as="geometry">
            <mxPoint x="1542" y="1140" as="sourcePoint" />
            <mxPoint x="1315" y="1140" as="targetPoint" />
          </mxGeometry>
        </mxCell>
        <mxCell id="6QwXeuThkFD-9IxJBqtr-339" value="" style="endArrow=none;html=1;rounded=0;strokeWidth=6;strokeColor=#F2462C;" edge="1" parent="1">
          <mxGeometry width="50" height="50" relative="1" as="geometry">
            <mxPoint x="1558" y="1160" as="sourcePoint" />
            <mxPoint x="1320" y="1160" as="targetPoint" />
          </mxGeometry>
        </mxCell>
        <mxCell id="6QwXeuThkFD-9IxJBqtr-340" value="" style="endArrow=none;html=1;rounded=0;strokeWidth=6;strokeColor=#F2462C;" edge="1" parent="1">
          <mxGeometry width="50" height="50" relative="1" as="geometry">
            <mxPoint x="1527" y="1120" as="sourcePoint" />
            <mxPoint x="1310" y="1120" as="targetPoint" />
          </mxGeometry>
        </mxCell>
        <mxCell id="6QwXeuThkFD-9IxJBqtr-336" value="" style="endArrow=none;html=1;rounded=0;strokeWidth=6;strokeColor=#F2462C;" edge="1" parent="1">
          <mxGeometry width="50" height="50" relative="1" as="geometry">
            <mxPoint x="1514" y="1100" as="sourcePoint" />
            <mxPoint x="1306" y="1100" as="targetPoint" />
          </mxGeometry>
        </mxCell>
        <mxCell id="6QwXeuThkFD-9IxJBqtr-341" value="" style="endArrow=none;html=1;rounded=0;strokeWidth=6;strokeColor=#F2462C;" edge="1" parent="1">
          <mxGeometry width="50" height="50" relative="1" as="geometry">
            <mxPoint x="1500.5" y="1080" as="sourcePoint" />
            <mxPoint x="1299.5" y="1080" as="targetPoint" />
          </mxGeometry>
        </mxCell>
        <mxCell id="6QwXeuThkFD-9IxJBqtr-338" value="" style="endArrow=none;html=1;rounded=0;strokeWidth=6;strokeColor=#F2462C;" edge="1" parent="1">
          <mxGeometry width="50" height="50" relative="1" as="geometry">
            <mxPoint x="1483" y="1060" as="sourcePoint" />
            <mxPoint x="1296" y="1060" as="targetPoint" />
          </mxGeometry>
        </mxCell>
        <mxCell id="6QwXeuThkFD-9IxJBqtr-342" value="" style="endArrow=none;html=1;rounded=0;strokeWidth=6;strokeColor=#F2462C;" edge="1" parent="1">
          <mxGeometry width="50" height="50" relative="1" as="geometry">
            <mxPoint x="1469" y="1040" as="sourcePoint" />
            <mxPoint x="1291" y="1040" as="targetPoint" />
          </mxGeometry>
        </mxCell>
        <mxCell id="6QwXeuThkFD-9IxJBqtr-337" value="" style="endArrow=none;html=1;rounded=0;strokeWidth=6;strokeColor=#F2462C;" edge="1" parent="1">
          <mxGeometry width="50" height="50" relative="1" as="geometry">
            <mxPoint x="1453.5" y="1020" as="sourcePoint" />
            <mxPoint x="1284" y="1020" as="targetPoint" />
          </mxGeometry>
        </mxCell>
        <mxCell id="6QwXeuThkFD-9IxJBqtr-332" value="" style="endArrow=none;html=1;rounded=0;strokeWidth=6;strokeColor=#F2462C;" edge="1" parent="1">
          <mxGeometry width="50" height="50" relative="1" as="geometry">
            <mxPoint x="1590" y="1920" as="sourcePoint" />
            <mxPoint x="1331" y="1920" as="targetPoint" />
          </mxGeometry>
        </mxCell>
        <mxCell id="6QwXeuThkFD-9IxJBqtr-331" value="" style="endArrow=none;html=1;rounded=0;strokeWidth=6;strokeColor=#F2462C;" edge="1" parent="1">
          <mxGeometry width="50" height="50" relative="1" as="geometry">
            <mxPoint x="1543" y="1980" as="sourcePoint" />
            <mxPoint x="1316" y="1980" as="targetPoint" />
          </mxGeometry>
        </mxCell>
        <mxCell id="6QwXeuThkFD-9IxJBqtr-330" value="" style="endArrow=none;html=1;rounded=0;strokeWidth=6;strokeColor=#F2462C;" edge="1" parent="1">
          <mxGeometry width="50" height="50" relative="1" as="geometry">
            <mxPoint x="1574" y="1940" as="sourcePoint" />
            <mxPoint x="1325" y="1940" as="targetPoint" />
          </mxGeometry>
        </mxCell>
        <mxCell id="6QwXeuThkFD-9IxJBqtr-329" value="" style="endArrow=none;html=1;rounded=0;strokeWidth=6;strokeColor=#F2462C;" edge="1" parent="1">
          <mxGeometry width="50" height="50" relative="1" as="geometry">
            <mxPoint x="1514" y="2020" as="sourcePoint" />
            <mxPoint x="1306" y="2020" as="targetPoint" />
          </mxGeometry>
        </mxCell>
        <mxCell id="6QwXeuThkFD-9IxJBqtr-328" value="" style="endArrow=none;html=1;rounded=0;strokeWidth=6;strokeColor=#F2462C;" edge="1" parent="1">
          <mxGeometry width="50" height="50" relative="1" as="geometry">
            <mxPoint x="1456" y="2100" as="sourcePoint" />
            <mxPoint x="1286.5" y="2100" as="targetPoint" />
          </mxGeometry>
        </mxCell>
        <mxCell id="6QwXeuThkFD-9IxJBqtr-327" value="" style="endArrow=none;html=1;rounded=0;strokeWidth=6;strokeColor=#F2462C;" edge="1" parent="1">
          <mxGeometry width="50" height="50" relative="1" as="geometry">
            <mxPoint x="1483" y="2060" as="sourcePoint" />
            <mxPoint x="1296" y="2060" as="targetPoint" />
          </mxGeometry>
        </mxCell>
        <mxCell id="6QwXeuThkFD-9IxJBqtr-319" value="" style="endArrow=none;html=1;rounded=0;strokeWidth=6;strokeColor=#F2462C;" edge="1" parent="1">
          <mxGeometry width="50" height="50" relative="1" as="geometry">
            <mxPoint x="1558" y="1960" as="sourcePoint" />
            <mxPoint x="1320" y="1960" as="targetPoint" />
          </mxGeometry>
        </mxCell>
        <mxCell id="6QwXeuThkFD-9IxJBqtr-318" value="" style="endArrow=none;html=1;rounded=0;strokeWidth=6;strokeColor=#F2462C;" edge="1" parent="1">
          <mxGeometry width="50" height="50" relative="1" as="geometry">
            <mxPoint x="1529" y="2000" as="sourcePoint" />
            <mxPoint x="1312" y="2000" as="targetPoint" />
          </mxGeometry>
        </mxCell>
        <mxCell id="6QwXeuThkFD-9IxJBqtr-317" value="" style="endArrow=none;html=1;rounded=0;strokeWidth=6;strokeColor=#F2462C;" edge="1" parent="1">
          <mxGeometry width="50" height="50" relative="1" as="geometry">
            <mxPoint x="1501" y="2040" as="sourcePoint" />
            <mxPoint x="1300" y="2040" as="targetPoint" />
          </mxGeometry>
        </mxCell>
        <mxCell id="6QwXeuThkFD-9IxJBqtr-315" value="" style="endArrow=none;html=1;rounded=0;strokeWidth=6;strokeColor=#F2462C;" edge="1" parent="1">
          <mxGeometry width="50" height="50" relative="1" as="geometry">
            <mxPoint x="1470" y="2080" as="sourcePoint" />
            <mxPoint x="1292" y="2080" as="targetPoint" />
          </mxGeometry>
        </mxCell>
        <mxCell id="6QwXeuThkFD-9IxJBqtr-296" value="" style="endArrow=none;html=1;rounded=0;strokeWidth=6;strokeColor=#7E3CF0;" edge="1" parent="1">
          <mxGeometry width="50" height="50" relative="1" as="geometry">
            <mxPoint x="1550" y="1640" as="sourcePoint" />
            <mxPoint x="1550" y="1720" as="targetPoint" />
          </mxGeometry>
        </mxCell>
        <mxCell id="6QwXeuThkFD-9IxJBqtr-297" value="" style="endArrow=none;html=1;rounded=0;strokeWidth=6;strokeColor=#7E3CF0;" edge="1" parent="1">
          <mxGeometry width="50" height="50" relative="1" as="geometry">
            <mxPoint x="1570" y="1640" as="sourcePoint" />
            <mxPoint x="1570" y="1720" as="targetPoint" />
          </mxGeometry>
        </mxCell>
        <mxCell id="6QwXeuThkFD-9IxJBqtr-294" value="" style="endArrow=none;html=1;rounded=0;strokeWidth=6;strokeColor=#7E3CF0;" edge="1" parent="1">
          <mxGeometry width="50" height="50" relative="1" as="geometry">
            <mxPoint x="1430" y="1640" as="sourcePoint" />
            <mxPoint x="1430" y="1720" as="targetPoint" />
          </mxGeometry>
        </mxCell>
        <mxCell id="6QwXeuThkFD-9IxJBqtr-295" value="" style="endArrow=none;html=1;rounded=0;strokeWidth=6;strokeColor=#7E3CF0;" edge="1" parent="1">
          <mxGeometry width="50" height="50" relative="1" as="geometry">
            <mxPoint x="1450" y="1640" as="sourcePoint" />
            <mxPoint x="1450" y="1720" as="targetPoint" />
          </mxGeometry>
        </mxCell>
        <mxCell id="6QwXeuThkFD-9IxJBqtr-292" value="" style="endArrow=none;html=1;rounded=0;strokeWidth=6;strokeColor=#7E3CF0;" edge="1" parent="1">
          <mxGeometry width="50" height="50" relative="1" as="geometry">
            <mxPoint x="1430" y="1400" as="sourcePoint" />
            <mxPoint x="1430" y="1480" as="targetPoint" />
          </mxGeometry>
        </mxCell>
        <mxCell id="6QwXeuThkFD-9IxJBqtr-293" value="" style="endArrow=none;html=1;rounded=0;strokeWidth=6;strokeColor=#7E3CF0;" edge="1" parent="1">
          <mxGeometry width="50" height="50" relative="1" as="geometry">
            <mxPoint x="1450" y="1400" as="sourcePoint" />
            <mxPoint x="1450" y="1480" as="targetPoint" />
          </mxGeometry>
        </mxCell>
        <mxCell id="6QwXeuThkFD-9IxJBqtr-290" value="" style="endArrow=none;html=1;rounded=0;strokeWidth=6;strokeColor=#7E3CF0;" edge="1" parent="1">
          <mxGeometry width="50" height="50" relative="1" as="geometry">
            <mxPoint x="1550" y="1400" as="sourcePoint" />
            <mxPoint x="1550" y="1480" as="targetPoint" />
          </mxGeometry>
        </mxCell>
        <mxCell id="6QwXeuThkFD-9IxJBqtr-291" value="" style="endArrow=none;html=1;rounded=0;strokeWidth=6;strokeColor=#7E3CF0;" edge="1" parent="1">
          <mxGeometry width="50" height="50" relative="1" as="geometry">
            <mxPoint x="1570" y="1400" as="sourcePoint" />
            <mxPoint x="1570" y="1480" as="targetPoint" />
          </mxGeometry>
        </mxCell>
        <mxCell id="6QwXeuThkFD-9IxJBqtr-50" value="" style="endArrow=none;html=1;rounded=0;strokeWidth=6;strokeColor=#7E3CF0;" edge="1" parent="1">
          <mxGeometry width="50" height="50" relative="1" as="geometry">
            <mxPoint x="400" y="-370" as="sourcePoint" />
            <mxPoint x="600" y="-370.36" as="targetPoint" />
          </mxGeometry>
        </mxCell>
        <mxCell id="6QwXeuThkFD-9IxJBqtr-49" value="" style="endArrow=none;html=1;rounded=0;strokeWidth=6;strokeColor=#7E3CF0;" edge="1" parent="1">
          <mxGeometry width="50" height="50" relative="1" as="geometry">
            <mxPoint x="400" y="-390" as="sourcePoint" />
            <mxPoint x="600" y="-390.36" as="targetPoint" />
          </mxGeometry>
        </mxCell>
        <mxCell id="6QwXeuThkFD-9IxJBqtr-47" value="" style="endArrow=none;html=1;rounded=0;strokeWidth=6;strokeColor=#7E3CF0;" edge="1" parent="1">
          <mxGeometry width="50" height="50" relative="1" as="geometry">
            <mxPoint x="400" y="-250" as="sourcePoint" />
            <mxPoint x="600" y="-250.36" as="targetPoint" />
          </mxGeometry>
        </mxCell>
        <mxCell id="6QwXeuThkFD-9IxJBqtr-48" value="" style="endArrow=none;html=1;rounded=0;strokeWidth=6;strokeColor=#7E3CF0;" edge="1" parent="1">
          <mxGeometry width="50" height="50" relative="1" as="geometry">
            <mxPoint x="400" y="-270" as="sourcePoint" />
            <mxPoint x="600" y="-270.36" as="targetPoint" />
          </mxGeometry>
        </mxCell>
        <mxCell id="6QwXeuThkFD-9IxJBqtr-42" value="" style="endArrow=none;html=1;rounded=0;strokeWidth=6;strokeColor=#7E3CF0;" edge="1" parent="1">
          <mxGeometry width="50" height="50" relative="1" as="geometry">
            <mxPoint x="1480" y="-250.26" as="sourcePoint" />
            <mxPoint x="1560" y="-250.26" as="targetPoint" />
          </mxGeometry>
        </mxCell>
        <mxCell id="6QwXeuThkFD-9IxJBqtr-43" value="" style="endArrow=none;html=1;rounded=0;strokeWidth=6;strokeColor=#7E3CF0;" edge="1" parent="1">
          <mxGeometry width="50" height="50" relative="1" as="geometry">
            <mxPoint x="1480" y="-270.26" as="sourcePoint" />
            <mxPoint x="1560" y="-270.26" as="targetPoint" />
          </mxGeometry>
        </mxCell>
        <mxCell id="6QwXeuThkFD-9IxJBqtr-45" value="" style="endArrow=none;html=1;rounded=0;strokeWidth=6;strokeColor=#7E3CF0;" edge="1" parent="1">
          <mxGeometry width="50" height="50" relative="1" as="geometry">
            <mxPoint x="1480" y="-390.26" as="sourcePoint" />
            <mxPoint x="1560" y="-390.26" as="targetPoint" />
          </mxGeometry>
        </mxCell>
        <mxCell id="6QwXeuThkFD-9IxJBqtr-44" value="" style="endArrow=none;html=1;rounded=0;strokeWidth=6;strokeColor=#7E3CF0;" edge="1" parent="1">
          <mxGeometry width="50" height="50" relative="1" as="geometry">
            <mxPoint x="1480" y="-370.26" as="sourcePoint" />
            <mxPoint x="1560" y="-370.26" as="targetPoint" />
          </mxGeometry>
        </mxCell>
        <mxCell id="6QwXeuThkFD-9IxJBqtr-17" value="" style="endArrow=none;html=1;rounded=0;strokeWidth=6;strokeColor=#7E3CF0;" edge="1" parent="1">
          <mxGeometry width="50" height="50" relative="1" as="geometry">
            <mxPoint x="1240" y="-250" as="sourcePoint" />
            <mxPoint x="1320" y="-250" as="targetPoint" />
          </mxGeometry>
        </mxCell>
        <mxCell id="6QwXeuThkFD-9IxJBqtr-16" value="" style="endArrow=none;html=1;rounded=0;strokeWidth=6;strokeColor=#7E3CF0;" edge="1" parent="1">
          <mxGeometry width="50" height="50" relative="1" as="geometry">
            <mxPoint x="1240" y="-270" as="sourcePoint" />
            <mxPoint x="1320" y="-270" as="targetPoint" />
          </mxGeometry>
        </mxCell>
        <mxCell id="6QwXeuThkFD-9IxJBqtr-19" value="" style="endArrow=none;html=1;rounded=0;strokeWidth=6;strokeColor=#7E3CF0;" edge="1" parent="1">
          <mxGeometry width="50" height="50" relative="1" as="geometry">
            <mxPoint x="1240" y="-370" as="sourcePoint" />
            <mxPoint x="1320" y="-370" as="targetPoint" />
          </mxGeometry>
        </mxCell>
        <mxCell id="6QwXeuThkFD-9IxJBqtr-18" value="" style="endArrow=none;html=1;rounded=0;strokeWidth=6;strokeColor=#7E3CF0;" edge="1" parent="1">
          <mxGeometry width="50" height="50" relative="1" as="geometry">
            <mxPoint x="1240" y="-390" as="sourcePoint" />
            <mxPoint x="1320" y="-390" as="targetPoint" />
          </mxGeometry>
        </mxCell>
        <mxCell id="6QwXeuThkFD-9IxJBqtr-13" value="" style="endArrow=none;html=1;rounded=0;strokeWidth=6;strokeColor=#7E3CF0;" edge="1" parent="1">
          <mxGeometry width="50" height="50" relative="1" as="geometry">
            <mxPoint x="760" y="-250" as="sourcePoint" />
            <mxPoint x="840" y="-250" as="targetPoint" />
          </mxGeometry>
        </mxCell>
        <mxCell id="6QwXeuThkFD-9IxJBqtr-12" value="" style="endArrow=none;html=1;rounded=0;strokeWidth=6;strokeColor=#7E3CF0;" edge="1" parent="1">
          <mxGeometry width="50" height="50" relative="1" as="geometry">
            <mxPoint x="760" y="-270" as="sourcePoint" />
            <mxPoint x="840" y="-270" as="targetPoint" />
          </mxGeometry>
        </mxCell>
        <mxCell id="6QwXeuThkFD-9IxJBqtr-14" value="" style="endArrow=none;html=1;rounded=0;strokeWidth=6;strokeColor=#7E3CF0;" edge="1" parent="1">
          <mxGeometry width="50" height="50" relative="1" as="geometry">
            <mxPoint x="760" y="-390" as="sourcePoint" />
            <mxPoint x="840" y="-390" as="targetPoint" />
          </mxGeometry>
        </mxCell>
        <mxCell id="6QwXeuThkFD-9IxJBqtr-15" value="" style="endArrow=none;html=1;rounded=0;strokeWidth=6;strokeColor=#7E3CF0;" edge="1" parent="1">
          <mxGeometry width="50" height="50" relative="1" as="geometry">
            <mxPoint x="760" y="-370" as="sourcePoint" />
            <mxPoint x="840" y="-370" as="targetPoint" />
          </mxGeometry>
        </mxCell>
        <mxCell id="6QwXeuThkFD-9IxJBqtr-9" value="" style="endArrow=none;html=1;rounded=0;strokeWidth=6;strokeColor=#7E3CF0;" edge="1" parent="1">
          <mxGeometry width="50" height="50" relative="1" as="geometry">
            <mxPoint x="1000" y="-270" as="sourcePoint" />
            <mxPoint x="1080" y="-270" as="targetPoint" />
          </mxGeometry>
        </mxCell>
        <mxCell id="6QwXeuThkFD-9IxJBqtr-10" value="" style="endArrow=none;html=1;rounded=0;strokeWidth=6;strokeColor=#7E3CF0;" edge="1" parent="1">
          <mxGeometry width="50" height="50" relative="1" as="geometry">
            <mxPoint x="1000" y="-250" as="sourcePoint" />
            <mxPoint x="1080" y="-250" as="targetPoint" />
          </mxGeometry>
        </mxCell>
        <mxCell id="6QwXeuThkFD-9IxJBqtr-11" value="" style="endArrow=none;html=1;rounded=0;strokeWidth=6;strokeColor=#7E3CF0;" edge="1" parent="1">
          <mxGeometry width="50" height="50" relative="1" as="geometry">
            <mxPoint x="1000" y="-390" as="sourcePoint" />
            <mxPoint x="1080" y="-390" as="targetPoint" />
          </mxGeometry>
        </mxCell>
        <mxCell id="6QwXeuThkFD-9IxJBqtr-7" value="" style="endArrow=none;html=1;rounded=0;strokeWidth=6;strokeColor=#7E3CF0;" edge="1" parent="1">
          <mxGeometry width="50" height="50" relative="1" as="geometry">
            <mxPoint x="1000" y="-370" as="sourcePoint" />
            <mxPoint x="1080" y="-370" as="targetPoint" />
          </mxGeometry>
        </mxCell>
        <mxCell id="ChGyNla5XOdyrg7mQRe6-12" value="" style="endArrow=none;html=1;rounded=0;strokeWidth=6;strokeColor=#FFFFFF;" parent="1" edge="1">
          <mxGeometry width="50" height="50" relative="1" as="geometry">
            <mxPoint x="1560" y="-300" as="sourcePoint" />
            <mxPoint x="1560" y="-300" as="targetPoint" />
            <Array as="points">
              <mxPoint x="1560" y="-240" />
              <mxPoint x="1600" y="-160" />
              <mxPoint x="1560" y="-120" />
              <mxPoint x="1360" y="-120" />
              <mxPoint x="1320" y="-160" />
              <mxPoint x="1120" y="-160" />
              <mxPoint x="1040" y="-80" />
              <mxPoint x="800" y="-80" />
              <mxPoint x="720" y="-160" />
              <mxPoint x="520" y="-160" />
              <mxPoint x="400" y="-240" />
              <mxPoint x="400" y="-400" />
              <mxPoint x="520" y="-480" />
              <mxPoint x="720" y="-480" />
              <mxPoint x="800" y="-560" />
              <mxPoint x="1040" y="-560" />
              <mxPoint x="1120" y="-480" />
              <mxPoint x="1320" y="-480" />
              <mxPoint x="1360" y="-520" />
              <mxPoint x="1560" y="-520" />
              <mxPoint x="1600" y="-480" />
              <mxPoint x="1560" y="-400" />
            </Array>
          </mxGeometry>
        </mxCell>
        <mxCell id="ChGyNla5XOdyrg7mQRe6-13" value="" style="rounded=0;whiteSpace=wrap;html=1;strokeColor=#C2C2C2;fillColor=none;strokeWidth=8;" parent="1" vertex="1">
          <mxGeometry x="600" y="-400" width="160" height="160" as="geometry" />
        </mxCell>
        <mxCell id="ChGyNla5XOdyrg7mQRe6-14" value="" style="rounded=0;whiteSpace=wrap;html=1;strokeColor=#C2C2C2;fillColor=none;strokeWidth=8;" parent="1" vertex="1">
          <mxGeometry x="1080" y="-400" width="160" height="160" as="geometry" />
        </mxCell>
        <mxCell id="ChGyNla5XOdyrg7mQRe6-15" value="" style="rounded=0;whiteSpace=wrap;html=1;strokeColor=#C2C2C2;fillColor=none;strokeWidth=8;" parent="1" vertex="1">
          <mxGeometry x="840" y="-510" width="160" height="160" as="geometry" />
        </mxCell>
        <mxCell id="ChGyNla5XOdyrg7mQRe6-16" value="" style="rounded=0;whiteSpace=wrap;html=1;strokeColor=#C2C2C2;fillColor=none;strokeWidth=8;" parent="1" vertex="1">
          <mxGeometry x="840" y="-290" width="160" height="160" as="geometry" />
        </mxCell>
        <mxCell id="ChGyNla5XOdyrg7mQRe6-17" value="" style="rounded=0;whiteSpace=wrap;html=1;strokeColor=#C2C2C2;fillColor=none;strokeWidth=8;" parent="1" vertex="1">
          <mxGeometry x="1320" y="-400" width="160" height="160" as="geometry" />
        </mxCell>
        <mxCell id="ChGyNla5XOdyrg7mQRe6-18" value="" style="endArrow=none;html=1;rounded=0;strokeWidth=6;strokeColor=#62BCF0;" parent="1" edge="1">
          <mxGeometry width="50" height="50" relative="1" as="geometry">
            <mxPoint x="850" y="-300" as="sourcePoint" />
            <mxPoint x="850" y="-340" as="targetPoint" />
          </mxGeometry>
        </mxCell>
        <mxCell id="6QwXeuThkFD-9IxJBqtr-2" value="" style="endArrow=none;html=1;rounded=0;strokeWidth=6;strokeColor=#62BCF0;" edge="1" parent="1">
          <mxGeometry width="50" height="50" relative="1" as="geometry">
            <mxPoint x="870" y="-300" as="sourcePoint" />
            <mxPoint x="870" y="-340" as="targetPoint" />
          </mxGeometry>
        </mxCell>
        <mxCell id="6QwXeuThkFD-9IxJBqtr-3" value="" style="endArrow=none;html=1;rounded=0;strokeWidth=6;strokeColor=#62BCF0;" edge="1" parent="1">
          <mxGeometry width="50" height="50" relative="1" as="geometry">
            <mxPoint x="990" y="-300" as="sourcePoint" />
            <mxPoint x="990" y="-340" as="targetPoint" />
          </mxGeometry>
        </mxCell>
        <mxCell id="6QwXeuThkFD-9IxJBqtr-4" value="" style="endArrow=none;html=1;rounded=0;strokeWidth=6;strokeColor=#62BCF0;" edge="1" parent="1">
          <mxGeometry width="50" height="50" relative="1" as="geometry">
            <mxPoint x="970" y="-300" as="sourcePoint" />
            <mxPoint x="970" y="-340" as="targetPoint" />
          </mxGeometry>
        </mxCell>
        <mxCell id="6QwXeuThkFD-9IxJBqtr-5" value="" style="endArrow=none;html=1;rounded=0;strokeWidth=6;strokeColor=#62BCF0;" edge="1" parent="1">
          <mxGeometry width="50" height="50" relative="1" as="geometry">
            <mxPoint x="930" y="-300" as="sourcePoint" />
            <mxPoint x="930" y="-340" as="targetPoint" />
          </mxGeometry>
        </mxCell>
        <mxCell id="6QwXeuThkFD-9IxJBqtr-6" value="" style="endArrow=none;html=1;rounded=0;strokeWidth=6;strokeColor=#62BCF0;" edge="1" parent="1">
          <mxGeometry width="50" height="50" relative="1" as="geometry">
            <mxPoint x="910" y="-300" as="sourcePoint" />
            <mxPoint x="910" y="-340" as="targetPoint" />
          </mxGeometry>
        </mxCell>
        <mxCell id="6QwXeuThkFD-9IxJBqtr-20" value="" style="ellipse;whiteSpace=wrap;html=1;fillColor=none;strokeWidth=6;strokeColor=#B6F0EA;" vertex="1" parent="1">
          <mxGeometry x="770" y="-350" width="60" height="60" as="geometry" />
        </mxCell>
        <mxCell id="6QwXeuThkFD-9IxJBqtr-21" value="" style="ellipse;whiteSpace=wrap;html=1;fillColor=none;strokeWidth=6;strokeColor=#B6F0EA;" vertex="1" parent="1">
          <mxGeometry x="1010" y="-350" width="60" height="60" as="geometry" />
        </mxCell>
        <mxCell id="6QwXeuThkFD-9IxJBqtr-22" value="" style="ellipse;whiteSpace=wrap;html=1;fillColor=none;strokeWidth=6;strokeColor=#B6F0EA;" vertex="1" parent="1">
          <mxGeometry x="1250" y="-350" width="60" height="60" as="geometry" />
        </mxCell>
        <mxCell id="6QwXeuThkFD-9IxJBqtr-24" value="" style="endArrow=none;html=1;rounded=0;strokeWidth=6;strokeColor=#F08A24;" edge="1" parent="1">
          <mxGeometry width="50" height="50" relative="1" as="geometry">
            <mxPoint x="1135" y="-175" as="sourcePoint" />
            <mxPoint x="1135" y="-225" as="targetPoint" />
          </mxGeometry>
        </mxCell>
        <mxCell id="6QwXeuThkFD-9IxJBqtr-25" value="" style="endArrow=none;html=1;rounded=0;strokeWidth=6;strokeColor=#F08A24;" edge="1" parent="1">
          <mxGeometry width="50" height="50" relative="1" as="geometry">
            <mxPoint x="1150" y="-175" as="sourcePoint" />
            <mxPoint x="1150" y="-225" as="targetPoint" />
          </mxGeometry>
        </mxCell>
        <mxCell id="6QwXeuThkFD-9IxJBqtr-26" value="" style="endArrow=none;html=1;rounded=0;strokeWidth=6;strokeColor=#F08A24;" edge="1" parent="1">
          <mxGeometry width="50" height="50" relative="1" as="geometry">
            <mxPoint x="1185" y="-175" as="sourcePoint" />
            <mxPoint x="1185" y="-225" as="targetPoint" />
          </mxGeometry>
        </mxCell>
        <mxCell id="6QwXeuThkFD-9IxJBqtr-27" value="" style="endArrow=none;html=1;rounded=0;strokeWidth=6;strokeColor=#F08A24;" edge="1" parent="1">
          <mxGeometry width="50" height="50" relative="1" as="geometry">
            <mxPoint x="1170" y="-175" as="sourcePoint" />
            <mxPoint x="1170" y="-225" as="targetPoint" />
          </mxGeometry>
        </mxCell>
        <mxCell id="6QwXeuThkFD-9IxJBqtr-28" value="" style="endArrow=none;html=1;rounded=0;strokeWidth=6;strokeColor=#F08A24;" edge="1" parent="1">
          <mxGeometry width="50" height="50" relative="1" as="geometry">
            <mxPoint x="1134.71" y="-415" as="sourcePoint" />
            <mxPoint x="1134.71" y="-465" as="targetPoint" />
          </mxGeometry>
        </mxCell>
        <mxCell id="6QwXeuThkFD-9IxJBqtr-29" value="" style="endArrow=none;html=1;rounded=0;strokeWidth=6;strokeColor=#F08A24;" edge="1" parent="1">
          <mxGeometry width="50" height="50" relative="1" as="geometry">
            <mxPoint x="1149.71" y="-415" as="sourcePoint" />
            <mxPoint x="1149.71" y="-465" as="targetPoint" />
          </mxGeometry>
        </mxCell>
        <mxCell id="6QwXeuThkFD-9IxJBqtr-30" value="" style="endArrow=none;html=1;rounded=0;strokeWidth=6;strokeColor=#F08A24;" edge="1" parent="1">
          <mxGeometry width="50" height="50" relative="1" as="geometry">
            <mxPoint x="1184.71" y="-415" as="sourcePoint" />
            <mxPoint x="1184.71" y="-465" as="targetPoint" />
          </mxGeometry>
        </mxCell>
        <mxCell id="6QwXeuThkFD-9IxJBqtr-31" value="" style="endArrow=none;html=1;rounded=0;strokeWidth=6;strokeColor=#F08A24;" edge="1" parent="1">
          <mxGeometry width="50" height="50" relative="1" as="geometry">
            <mxPoint x="1169.71" y="-415" as="sourcePoint" />
            <mxPoint x="1169.71" y="-465" as="targetPoint" />
          </mxGeometry>
        </mxCell>
        <mxCell id="6QwXeuThkFD-9IxJBqtr-32" value="" style="endArrow=none;html=1;rounded=0;strokeWidth=6;strokeColor=#F08A24;" edge="1" parent="1">
          <mxGeometry width="50" height="50" relative="1" as="geometry">
            <mxPoint x="654.86" y="-175" as="sourcePoint" />
            <mxPoint x="654.86" y="-225" as="targetPoint" />
          </mxGeometry>
        </mxCell>
        <mxCell id="6QwXeuThkFD-9IxJBqtr-33" value="" style="endArrow=none;html=1;rounded=0;strokeWidth=6;strokeColor=#F08A24;" edge="1" parent="1">
          <mxGeometry width="50" height="50" relative="1" as="geometry">
            <mxPoint x="669.86" y="-175" as="sourcePoint" />
            <mxPoint x="669.86" y="-225" as="targetPoint" />
          </mxGeometry>
        </mxCell>
        <mxCell id="6QwXeuThkFD-9IxJBqtr-34" value="" style="endArrow=none;html=1;rounded=0;strokeWidth=6;strokeColor=#F08A24;" edge="1" parent="1">
          <mxGeometry width="50" height="50" relative="1" as="geometry">
            <mxPoint x="704.86" y="-175" as="sourcePoint" />
            <mxPoint x="704.86" y="-225" as="targetPoint" />
          </mxGeometry>
        </mxCell>
        <mxCell id="6QwXeuThkFD-9IxJBqtr-35" value="" style="endArrow=none;html=1;rounded=0;strokeWidth=6;strokeColor=#F08A24;" edge="1" parent="1">
          <mxGeometry width="50" height="50" relative="1" as="geometry">
            <mxPoint x="689.86" y="-175" as="sourcePoint" />
            <mxPoint x="689.86" y="-225" as="targetPoint" />
          </mxGeometry>
        </mxCell>
        <mxCell id="6QwXeuThkFD-9IxJBqtr-36" value="" style="endArrow=none;html=1;rounded=0;strokeWidth=6;strokeColor=#F08A24;" edge="1" parent="1">
          <mxGeometry width="50" height="50" relative="1" as="geometry">
            <mxPoint x="654.57" y="-415" as="sourcePoint" />
            <mxPoint x="654.57" y="-465" as="targetPoint" />
          </mxGeometry>
        </mxCell>
        <mxCell id="6QwXeuThkFD-9IxJBqtr-37" value="" style="endArrow=none;html=1;rounded=0;strokeWidth=6;strokeColor=#F08A24;" edge="1" parent="1">
          <mxGeometry width="50" height="50" relative="1" as="geometry">
            <mxPoint x="669.57" y="-415" as="sourcePoint" />
            <mxPoint x="669.57" y="-465" as="targetPoint" />
          </mxGeometry>
        </mxCell>
        <mxCell id="6QwXeuThkFD-9IxJBqtr-38" value="" style="endArrow=none;html=1;rounded=0;strokeWidth=6;strokeColor=#F08A24;" edge="1" parent="1">
          <mxGeometry width="50" height="50" relative="1" as="geometry">
            <mxPoint x="704.57" y="-415" as="sourcePoint" />
            <mxPoint x="704.57" y="-465" as="targetPoint" />
          </mxGeometry>
        </mxCell>
        <mxCell id="6QwXeuThkFD-9IxJBqtr-39" value="" style="endArrow=none;html=1;rounded=0;strokeWidth=6;strokeColor=#F08A24;" edge="1" parent="1">
          <mxGeometry width="50" height="50" relative="1" as="geometry">
            <mxPoint x="689.57" y="-415" as="sourcePoint" />
            <mxPoint x="689.57" y="-465" as="targetPoint" />
          </mxGeometry>
        </mxCell>
        <mxCell id="6QwXeuThkFD-9IxJBqtr-41" value="" style="ellipse;whiteSpace=wrap;html=1;fillColor=none;strokeWidth=6;strokeColor=#B6F0EA;" vertex="1" parent="1">
          <mxGeometry x="1490" y="-350" width="60" height="60" as="geometry" />
        </mxCell>
        <mxCell id="6QwXeuThkFD-9IxJBqtr-52" value="" style="ellipse;whiteSpace=wrap;html=1;fillColor=none;strokeWidth=6;strokeColor=#B6F0EA;" vertex="1" parent="1">
          <mxGeometry x="530" y="-350.36" width="60" height="60" as="geometry" />
        </mxCell>
        <mxCell id="6QwXeuThkFD-9IxJBqtr-53" value="" style="endArrow=none;html=1;rounded=0;strokeWidth=6;strokeColor=#5D5C5E;" edge="1" parent="1">
          <mxGeometry width="50" height="50" relative="1" as="geometry">
            <mxPoint x="410" y="-320" as="sourcePoint" />
            <mxPoint x="520" y="-320.2" as="targetPoint" />
          </mxGeometry>
        </mxCell>
        <mxCell id="6QwXeuThkFD-9IxJBqtr-54" value="" style="endArrow=none;html=1;rounded=0;strokeWidth=6;strokeColor=#5D5C5E;" edge="1" parent="1">
          <mxGeometry width="50" height="50" relative="1" as="geometry">
            <mxPoint x="1380" y="-160" as="sourcePoint" />
            <mxPoint x="1540" y="-160" as="targetPoint" />
          </mxGeometry>
        </mxCell>
        <mxCell id="6QwXeuThkFD-9IxJBqtr-55" value="" style="endArrow=none;html=1;rounded=0;strokeWidth=6;strokeColor=#5D5C5E;" edge="1" parent="1">
          <mxGeometry width="50" height="50" relative="1" as="geometry">
            <mxPoint x="1360" y="-180" as="sourcePoint" />
            <mxPoint x="1530" y="-180" as="targetPoint" />
          </mxGeometry>
        </mxCell>
        <mxCell id="6QwXeuThkFD-9IxJBqtr-56" value="" style="endArrow=none;html=1;rounded=0;strokeWidth=6;strokeColor=#5D5C5E;" edge="1" parent="1">
          <mxGeometry width="50" height="50" relative="1" as="geometry">
            <mxPoint x="1340" y="-200" as="sourcePoint" />
            <mxPoint x="1520" y="-200" as="targetPoint" />
          </mxGeometry>
        </mxCell>
        <mxCell id="6QwXeuThkFD-9IxJBqtr-58" value="" style="endArrow=none;html=1;rounded=0;strokeWidth=6;strokeColor=#5D5C5E;" edge="1" parent="1">
          <mxGeometry width="50" height="50" relative="1" as="geometry">
            <mxPoint x="1380" y="-479.99999999999994" as="sourcePoint" />
            <mxPoint x="1540" y="-479.99999999999994" as="targetPoint" />
          </mxGeometry>
        </mxCell>
        <mxCell id="6QwXeuThkFD-9IxJBqtr-59" value="" style="endArrow=none;html=1;rounded=0;strokeWidth=6;strokeColor=#5D5C5E;" edge="1" parent="1">
          <mxGeometry width="50" height="50" relative="1" as="geometry">
            <mxPoint x="1360" y="-459.99999999999994" as="sourcePoint" />
            <mxPoint x="1530" y="-459.99999999999994" as="targetPoint" />
          </mxGeometry>
        </mxCell>
        <mxCell id="6QwXeuThkFD-9IxJBqtr-60" value="" style="endArrow=none;html=1;rounded=0;strokeWidth=6;strokeColor=#5D5C5E;" edge="1" parent="1">
          <mxGeometry width="50" height="50" relative="1" as="geometry">
            <mxPoint x="1340" y="-440.41999999999996" as="sourcePoint" />
            <mxPoint x="1520" y="-440.41999999999996" as="targetPoint" />
          </mxGeometry>
        </mxCell>
        <mxCell id="6QwXeuThkFD-9IxJBqtr-121" value="" style="endArrow=none;html=1;rounded=0;strokeWidth=6;strokeColor=#7E3CF0;" edge="1" parent="1">
          <mxGeometry width="50" height="50" relative="1" as="geometry">
            <mxPoint x="260" y="370.16" as="sourcePoint" />
            <mxPoint x="460" y="369.8" as="targetPoint" />
          </mxGeometry>
        </mxCell>
        <mxCell id="6QwXeuThkFD-9IxJBqtr-122" value="" style="endArrow=none;html=1;rounded=0;strokeWidth=6;strokeColor=#7E3CF0;" edge="1" parent="1">
          <mxGeometry width="50" height="50" relative="1" as="geometry">
            <mxPoint x="260" y="350.16" as="sourcePoint" />
            <mxPoint x="460" y="349.8" as="targetPoint" />
          </mxGeometry>
        </mxCell>
        <mxCell id="6QwXeuThkFD-9IxJBqtr-123" value="" style="endArrow=none;html=1;rounded=0;strokeWidth=6;strokeColor=#7E3CF0;" edge="1" parent="1">
          <mxGeometry width="50" height="50" relative="1" as="geometry">
            <mxPoint x="260" y="490.16" as="sourcePoint" />
            <mxPoint x="460" y="489.8" as="targetPoint" />
          </mxGeometry>
        </mxCell>
        <mxCell id="6QwXeuThkFD-9IxJBqtr-124" value="" style="endArrow=none;html=1;rounded=0;strokeWidth=6;strokeColor=#7E3CF0;" edge="1" parent="1">
          <mxGeometry width="50" height="50" relative="1" as="geometry">
            <mxPoint x="260" y="470.16" as="sourcePoint" />
            <mxPoint x="460" y="469.8" as="targetPoint" />
          </mxGeometry>
        </mxCell>
        <mxCell id="6QwXeuThkFD-9IxJBqtr-125" value="" style="endArrow=none;html=1;rounded=0;strokeWidth=6;strokeColor=#7E3CF0;" edge="1" parent="1">
          <mxGeometry width="50" height="50" relative="1" as="geometry">
            <mxPoint x="1580" y="489.74" as="sourcePoint" />
            <mxPoint x="1660" y="489.74" as="targetPoint" />
          </mxGeometry>
        </mxCell>
        <mxCell id="6QwXeuThkFD-9IxJBqtr-126" value="" style="endArrow=none;html=1;rounded=0;strokeWidth=6;strokeColor=#7E3CF0;" edge="1" parent="1">
          <mxGeometry width="50" height="50" relative="1" as="geometry">
            <mxPoint x="1580" y="469.74" as="sourcePoint" />
            <mxPoint x="1660" y="469.74" as="targetPoint" />
          </mxGeometry>
        </mxCell>
        <mxCell id="6QwXeuThkFD-9IxJBqtr-127" value="" style="endArrow=none;html=1;rounded=0;strokeWidth=6;strokeColor=#7E3CF0;" edge="1" parent="1">
          <mxGeometry width="50" height="50" relative="1" as="geometry">
            <mxPoint x="1580" y="349.74" as="sourcePoint" />
            <mxPoint x="1660" y="349.74" as="targetPoint" />
          </mxGeometry>
        </mxCell>
        <mxCell id="6QwXeuThkFD-9IxJBqtr-128" value="" style="endArrow=none;html=1;rounded=0;strokeWidth=6;strokeColor=#7E3CF0;" edge="1" parent="1">
          <mxGeometry width="50" height="50" relative="1" as="geometry">
            <mxPoint x="1580" y="369.74" as="sourcePoint" />
            <mxPoint x="1660" y="369.74" as="targetPoint" />
          </mxGeometry>
        </mxCell>
        <mxCell id="6QwXeuThkFD-9IxJBqtr-129" value="" style="endArrow=none;html=1;rounded=0;strokeWidth=6;strokeColor=#7E3CF0;" edge="1" parent="1">
          <mxGeometry width="50" height="50" relative="1" as="geometry">
            <mxPoint x="1340" y="490" as="sourcePoint" />
            <mxPoint x="1420" y="490" as="targetPoint" />
          </mxGeometry>
        </mxCell>
        <mxCell id="6QwXeuThkFD-9IxJBqtr-130" value="" style="endArrow=none;html=1;rounded=0;strokeWidth=6;strokeColor=#7E3CF0;" edge="1" parent="1">
          <mxGeometry width="50" height="50" relative="1" as="geometry">
            <mxPoint x="1340" y="470" as="sourcePoint" />
            <mxPoint x="1420" y="470" as="targetPoint" />
          </mxGeometry>
        </mxCell>
        <mxCell id="6QwXeuThkFD-9IxJBqtr-131" value="" style="endArrow=none;html=1;rounded=0;strokeWidth=6;strokeColor=#7E3CF0;" edge="1" parent="1">
          <mxGeometry width="50" height="50" relative="1" as="geometry">
            <mxPoint x="1340" y="370" as="sourcePoint" />
            <mxPoint x="1420" y="370" as="targetPoint" />
          </mxGeometry>
        </mxCell>
        <mxCell id="6QwXeuThkFD-9IxJBqtr-132" value="" style="endArrow=none;html=1;rounded=0;strokeWidth=6;strokeColor=#7E3CF0;" edge="1" parent="1">
          <mxGeometry width="50" height="50" relative="1" as="geometry">
            <mxPoint x="1340" y="350" as="sourcePoint" />
            <mxPoint x="1420" y="350" as="targetPoint" />
          </mxGeometry>
        </mxCell>
        <mxCell id="6QwXeuThkFD-9IxJBqtr-133" value="" style="endArrow=none;html=1;rounded=0;strokeWidth=6;strokeColor=#7E3CF0;" edge="1" parent="1">
          <mxGeometry width="50" height="50" relative="1" as="geometry">
            <mxPoint x="860" y="490" as="sourcePoint" />
            <mxPoint x="940" y="490" as="targetPoint" />
          </mxGeometry>
        </mxCell>
        <mxCell id="6QwXeuThkFD-9IxJBqtr-134" value="" style="endArrow=none;html=1;rounded=0;strokeWidth=6;strokeColor=#7E3CF0;" edge="1" parent="1">
          <mxGeometry width="50" height="50" relative="1" as="geometry">
            <mxPoint x="860" y="470" as="sourcePoint" />
            <mxPoint x="940" y="470" as="targetPoint" />
          </mxGeometry>
        </mxCell>
        <mxCell id="6QwXeuThkFD-9IxJBqtr-135" value="" style="endArrow=none;html=1;rounded=0;strokeWidth=6;strokeColor=#7E3CF0;" edge="1" parent="1">
          <mxGeometry width="50" height="50" relative="1" as="geometry">
            <mxPoint x="860" y="350" as="sourcePoint" />
            <mxPoint x="940" y="350" as="targetPoint" />
          </mxGeometry>
        </mxCell>
        <mxCell id="6QwXeuThkFD-9IxJBqtr-136" value="" style="endArrow=none;html=1;rounded=0;strokeWidth=6;strokeColor=#7E3CF0;" edge="1" parent="1">
          <mxGeometry width="50" height="50" relative="1" as="geometry">
            <mxPoint x="860" y="370" as="sourcePoint" />
            <mxPoint x="940" y="370" as="targetPoint" />
          </mxGeometry>
        </mxCell>
        <mxCell id="6QwXeuThkFD-9IxJBqtr-137" value="" style="endArrow=none;html=1;rounded=0;strokeWidth=6;strokeColor=#7E3CF0;" edge="1" parent="1">
          <mxGeometry width="50" height="50" relative="1" as="geometry">
            <mxPoint x="1100" y="470" as="sourcePoint" />
            <mxPoint x="1180" y="470" as="targetPoint" />
          </mxGeometry>
        </mxCell>
        <mxCell id="6QwXeuThkFD-9IxJBqtr-138" value="" style="endArrow=none;html=1;rounded=0;strokeWidth=6;strokeColor=#7E3CF0;" edge="1" parent="1">
          <mxGeometry width="50" height="50" relative="1" as="geometry">
            <mxPoint x="1100" y="490" as="sourcePoint" />
            <mxPoint x="1180" y="490" as="targetPoint" />
          </mxGeometry>
        </mxCell>
        <mxCell id="6QwXeuThkFD-9IxJBqtr-139" value="" style="endArrow=none;html=1;rounded=0;strokeWidth=6;strokeColor=#7E3CF0;" edge="1" parent="1">
          <mxGeometry width="50" height="50" relative="1" as="geometry">
            <mxPoint x="1100" y="350" as="sourcePoint" />
            <mxPoint x="1180" y="350" as="targetPoint" />
          </mxGeometry>
        </mxCell>
        <mxCell id="6QwXeuThkFD-9IxJBqtr-140" value="" style="endArrow=none;html=1;rounded=0;strokeWidth=6;strokeColor=#7E3CF0;" edge="1" parent="1">
          <mxGeometry width="50" height="50" relative="1" as="geometry">
            <mxPoint x="1100" y="370" as="sourcePoint" />
            <mxPoint x="1180" y="370" as="targetPoint" />
          </mxGeometry>
        </mxCell>
        <mxCell id="6QwXeuThkFD-9IxJBqtr-141" value="" style="endArrow=none;html=1;rounded=0;strokeWidth=6;strokeColor=#FFFFFF;" edge="1" parent="1">
          <mxGeometry width="50" height="50" relative="1" as="geometry">
            <mxPoint x="1660" y="440" as="sourcePoint" />
            <mxPoint x="1660" y="440" as="targetPoint" />
            <Array as="points">
              <mxPoint x="1660" y="500" />
              <mxPoint x="1700" y="580" />
              <mxPoint x="1660" y="620" />
              <mxPoint x="1460" y="620" />
              <mxPoint x="1420" y="580" />
              <mxPoint x="1220" y="580" />
              <mxPoint x="1140" y="660" />
              <mxPoint x="900" y="660" />
              <mxPoint x="820" y="580" />
              <mxPoint x="740" y="580" />
              <mxPoint x="700" y="620" />
              <mxPoint x="620" y="620" />
              <mxPoint x="580" y="580" />
              <mxPoint x="380" y="580" />
              <mxPoint x="260" y="500" />
              <mxPoint x="260" y="340" />
              <mxPoint x="380" y="260" />
              <mxPoint x="580" y="260" />
              <mxPoint x="620" y="220" />
              <mxPoint x="700" y="220" />
              <mxPoint x="740" y="260" />
              <mxPoint x="820" y="260" />
              <mxPoint x="900" y="180" />
              <mxPoint x="1140" y="180" />
              <mxPoint x="1220" y="260" />
              <mxPoint x="1420" y="260" />
              <mxPoint x="1460" y="220" />
              <mxPoint x="1660" y="220" />
              <mxPoint x="1700" y="260" />
              <mxPoint x="1660" y="340" />
            </Array>
          </mxGeometry>
        </mxCell>
        <mxCell id="6QwXeuThkFD-9IxJBqtr-142" value="" style="rounded=0;whiteSpace=wrap;html=1;strokeColor=#C2C2C2;fillColor=none;strokeWidth=8;" vertex="1" parent="1">
          <mxGeometry x="700" y="340" width="160" height="160" as="geometry" />
        </mxCell>
        <mxCell id="6QwXeuThkFD-9IxJBqtr-143" value="" style="rounded=0;whiteSpace=wrap;html=1;strokeColor=#C2C2C2;fillColor=none;strokeWidth=8;" vertex="1" parent="1">
          <mxGeometry x="1180" y="340" width="160" height="160" as="geometry" />
        </mxCell>
        <mxCell id="6QwXeuThkFD-9IxJBqtr-144" value="" style="rounded=0;whiteSpace=wrap;html=1;strokeColor=#C2C2C2;fillColor=none;strokeWidth=8;" vertex="1" parent="1">
          <mxGeometry x="940" y="230" width="160" height="160" as="geometry" />
        </mxCell>
        <mxCell id="6QwXeuThkFD-9IxJBqtr-145" value="" style="rounded=0;whiteSpace=wrap;html=1;strokeColor=#C2C2C2;fillColor=none;strokeWidth=8;" vertex="1" parent="1">
          <mxGeometry x="940" y="450" width="160" height="160" as="geometry" />
        </mxCell>
        <mxCell id="6QwXeuThkFD-9IxJBqtr-146" value="" style="rounded=0;whiteSpace=wrap;html=1;strokeColor=#C2C2C2;fillColor=none;strokeWidth=8;" vertex="1" parent="1">
          <mxGeometry x="1420" y="340" width="160" height="160" as="geometry" />
        </mxCell>
        <mxCell id="6QwXeuThkFD-9IxJBqtr-147" value="" style="endArrow=none;html=1;rounded=0;strokeWidth=6;strokeColor=#62BCF0;" edge="1" parent="1">
          <mxGeometry width="50" height="50" relative="1" as="geometry">
            <mxPoint x="950" y="440" as="sourcePoint" />
            <mxPoint x="950" y="400" as="targetPoint" />
          </mxGeometry>
        </mxCell>
        <mxCell id="6QwXeuThkFD-9IxJBqtr-148" value="" style="endArrow=none;html=1;rounded=0;strokeWidth=6;strokeColor=#62BCF0;" edge="1" parent="1">
          <mxGeometry width="50" height="50" relative="1" as="geometry">
            <mxPoint x="970" y="440" as="sourcePoint" />
            <mxPoint x="970" y="400" as="targetPoint" />
          </mxGeometry>
        </mxCell>
        <mxCell id="6QwXeuThkFD-9IxJBqtr-149" value="" style="endArrow=none;html=1;rounded=0;strokeWidth=6;strokeColor=#62BCF0;" edge="1" parent="1">
          <mxGeometry width="50" height="50" relative="1" as="geometry">
            <mxPoint x="1090" y="440" as="sourcePoint" />
            <mxPoint x="1090" y="400" as="targetPoint" />
          </mxGeometry>
        </mxCell>
        <mxCell id="6QwXeuThkFD-9IxJBqtr-150" value="" style="endArrow=none;html=1;rounded=0;strokeWidth=6;strokeColor=#62BCF0;" edge="1" parent="1">
          <mxGeometry width="50" height="50" relative="1" as="geometry">
            <mxPoint x="1070" y="440" as="sourcePoint" />
            <mxPoint x="1070" y="400" as="targetPoint" />
          </mxGeometry>
        </mxCell>
        <mxCell id="6QwXeuThkFD-9IxJBqtr-151" value="" style="endArrow=none;html=1;rounded=0;strokeWidth=6;strokeColor=#62BCF0;" edge="1" parent="1">
          <mxGeometry width="50" height="50" relative="1" as="geometry">
            <mxPoint x="1030" y="440" as="sourcePoint" />
            <mxPoint x="1030" y="400" as="targetPoint" />
          </mxGeometry>
        </mxCell>
        <mxCell id="6QwXeuThkFD-9IxJBqtr-152" value="" style="endArrow=none;html=1;rounded=0;strokeWidth=6;strokeColor=#62BCF0;" edge="1" parent="1">
          <mxGeometry width="50" height="50" relative="1" as="geometry">
            <mxPoint x="1010" y="440" as="sourcePoint" />
            <mxPoint x="1010" y="400" as="targetPoint" />
          </mxGeometry>
        </mxCell>
        <mxCell id="6QwXeuThkFD-9IxJBqtr-153" value="" style="ellipse;whiteSpace=wrap;html=1;fillColor=none;strokeWidth=6;strokeColor=#B6F0EA;" vertex="1" parent="1">
          <mxGeometry x="870" y="390" width="60" height="60" as="geometry" />
        </mxCell>
        <mxCell id="6QwXeuThkFD-9IxJBqtr-154" value="" style="ellipse;whiteSpace=wrap;html=1;fillColor=none;strokeWidth=6;strokeColor=#B6F0EA;" vertex="1" parent="1">
          <mxGeometry x="1110" y="390" width="60" height="60" as="geometry" />
        </mxCell>
        <mxCell id="6QwXeuThkFD-9IxJBqtr-155" value="" style="ellipse;whiteSpace=wrap;html=1;fillColor=none;strokeWidth=6;strokeColor=#B6F0EA;" vertex="1" parent="1">
          <mxGeometry x="1350" y="390" width="60" height="60" as="geometry" />
        </mxCell>
        <mxCell id="6QwXeuThkFD-9IxJBqtr-156" value="" style="endArrow=none;html=1;rounded=0;strokeWidth=6;strokeColor=#F08A24;" edge="1" parent="1">
          <mxGeometry width="50" height="50" relative="1" as="geometry">
            <mxPoint x="1235" y="565" as="sourcePoint" />
            <mxPoint x="1235" y="515" as="targetPoint" />
          </mxGeometry>
        </mxCell>
        <mxCell id="6QwXeuThkFD-9IxJBqtr-157" value="" style="endArrow=none;html=1;rounded=0;strokeWidth=6;strokeColor=#F08A24;" edge="1" parent="1">
          <mxGeometry width="50" height="50" relative="1" as="geometry">
            <mxPoint x="1250" y="565" as="sourcePoint" />
            <mxPoint x="1250" y="515" as="targetPoint" />
          </mxGeometry>
        </mxCell>
        <mxCell id="6QwXeuThkFD-9IxJBqtr-158" value="" style="endArrow=none;html=1;rounded=0;strokeWidth=6;strokeColor=#F08A24;" edge="1" parent="1">
          <mxGeometry width="50" height="50" relative="1" as="geometry">
            <mxPoint x="1285" y="565" as="sourcePoint" />
            <mxPoint x="1285" y="515" as="targetPoint" />
          </mxGeometry>
        </mxCell>
        <mxCell id="6QwXeuThkFD-9IxJBqtr-159" value="" style="endArrow=none;html=1;rounded=0;strokeWidth=6;strokeColor=#F08A24;" edge="1" parent="1">
          <mxGeometry width="50" height="50" relative="1" as="geometry">
            <mxPoint x="1270" y="565" as="sourcePoint" />
            <mxPoint x="1270" y="515" as="targetPoint" />
          </mxGeometry>
        </mxCell>
        <mxCell id="6QwXeuThkFD-9IxJBqtr-160" value="" style="endArrow=none;html=1;rounded=0;strokeWidth=6;strokeColor=#F08A24;" edge="1" parent="1">
          <mxGeometry width="50" height="50" relative="1" as="geometry">
            <mxPoint x="1234.71" y="325" as="sourcePoint" />
            <mxPoint x="1234.71" y="275" as="targetPoint" />
          </mxGeometry>
        </mxCell>
        <mxCell id="6QwXeuThkFD-9IxJBqtr-161" value="" style="endArrow=none;html=1;rounded=0;strokeWidth=6;strokeColor=#F08A24;" edge="1" parent="1">
          <mxGeometry width="50" height="50" relative="1" as="geometry">
            <mxPoint x="1249.71" y="325" as="sourcePoint" />
            <mxPoint x="1249.71" y="275" as="targetPoint" />
          </mxGeometry>
        </mxCell>
        <mxCell id="6QwXeuThkFD-9IxJBqtr-162" value="" style="endArrow=none;html=1;rounded=0;strokeWidth=6;strokeColor=#F08A24;" edge="1" parent="1">
          <mxGeometry width="50" height="50" relative="1" as="geometry">
            <mxPoint x="1284.71" y="325" as="sourcePoint" />
            <mxPoint x="1284.71" y="275" as="targetPoint" />
          </mxGeometry>
        </mxCell>
        <mxCell id="6QwXeuThkFD-9IxJBqtr-163" value="" style="endArrow=none;html=1;rounded=0;strokeWidth=6;strokeColor=#F08A24;" edge="1" parent="1">
          <mxGeometry width="50" height="50" relative="1" as="geometry">
            <mxPoint x="1269.71" y="325" as="sourcePoint" />
            <mxPoint x="1269.71" y="275" as="targetPoint" />
          </mxGeometry>
        </mxCell>
        <mxCell id="6QwXeuThkFD-9IxJBqtr-164" value="" style="endArrow=none;html=1;rounded=0;strokeWidth=6;strokeColor=#F08A24;" edge="1" parent="1">
          <mxGeometry width="50" height="50" relative="1" as="geometry">
            <mxPoint x="754.86" y="565" as="sourcePoint" />
            <mxPoint x="754.86" y="515" as="targetPoint" />
          </mxGeometry>
        </mxCell>
        <mxCell id="6QwXeuThkFD-9IxJBqtr-165" value="" style="endArrow=none;html=1;rounded=0;strokeWidth=6;strokeColor=#F08A24;" edge="1" parent="1">
          <mxGeometry width="50" height="50" relative="1" as="geometry">
            <mxPoint x="769.86" y="565" as="sourcePoint" />
            <mxPoint x="769.86" y="515" as="targetPoint" />
          </mxGeometry>
        </mxCell>
        <mxCell id="6QwXeuThkFD-9IxJBqtr-166" value="" style="endArrow=none;html=1;rounded=0;strokeWidth=6;strokeColor=#F08A24;" edge="1" parent="1">
          <mxGeometry width="50" height="50" relative="1" as="geometry">
            <mxPoint x="804.86" y="565" as="sourcePoint" />
            <mxPoint x="804.86" y="515" as="targetPoint" />
          </mxGeometry>
        </mxCell>
        <mxCell id="6QwXeuThkFD-9IxJBqtr-167" value="" style="endArrow=none;html=1;rounded=0;strokeWidth=6;strokeColor=#F08A24;" edge="1" parent="1">
          <mxGeometry width="50" height="50" relative="1" as="geometry">
            <mxPoint x="789.86" y="565" as="sourcePoint" />
            <mxPoint x="789.86" y="515" as="targetPoint" />
          </mxGeometry>
        </mxCell>
        <mxCell id="6QwXeuThkFD-9IxJBqtr-168" value="" style="endArrow=none;html=1;rounded=0;strokeWidth=6;strokeColor=#F08A24;" edge="1" parent="1">
          <mxGeometry width="50" height="50" relative="1" as="geometry">
            <mxPoint x="754.57" y="325" as="sourcePoint" />
            <mxPoint x="754.57" y="275" as="targetPoint" />
          </mxGeometry>
        </mxCell>
        <mxCell id="6QwXeuThkFD-9IxJBqtr-169" value="" style="endArrow=none;html=1;rounded=0;strokeWidth=6;strokeColor=#F08A24;" edge="1" parent="1">
          <mxGeometry width="50" height="50" relative="1" as="geometry">
            <mxPoint x="769.57" y="325" as="sourcePoint" />
            <mxPoint x="769.57" y="275" as="targetPoint" />
          </mxGeometry>
        </mxCell>
        <mxCell id="6QwXeuThkFD-9IxJBqtr-170" value="" style="endArrow=none;html=1;rounded=0;strokeWidth=6;strokeColor=#F08A24;" edge="1" parent="1">
          <mxGeometry width="50" height="50" relative="1" as="geometry">
            <mxPoint x="804.57" y="325" as="sourcePoint" />
            <mxPoint x="804.57" y="275" as="targetPoint" />
          </mxGeometry>
        </mxCell>
        <mxCell id="6QwXeuThkFD-9IxJBqtr-171" value="" style="endArrow=none;html=1;rounded=0;strokeWidth=6;strokeColor=#F08A24;" edge="1" parent="1">
          <mxGeometry width="50" height="50" relative="1" as="geometry">
            <mxPoint x="789.57" y="325" as="sourcePoint" />
            <mxPoint x="789.57" y="275" as="targetPoint" />
          </mxGeometry>
        </mxCell>
        <mxCell id="6QwXeuThkFD-9IxJBqtr-172" value="" style="ellipse;whiteSpace=wrap;html=1;fillColor=none;strokeWidth=6;strokeColor=#B6F0EA;" vertex="1" parent="1">
          <mxGeometry x="1590" y="390" width="60" height="60" as="geometry" />
        </mxCell>
        <mxCell id="6QwXeuThkFD-9IxJBqtr-173" value="" style="ellipse;whiteSpace=wrap;html=1;fillColor=none;strokeWidth=6;strokeColor=#B6F0EA;" vertex="1" parent="1">
          <mxGeometry x="390" y="389.8" width="60" height="60" as="geometry" />
        </mxCell>
        <mxCell id="6QwXeuThkFD-9IxJBqtr-174" value="" style="endArrow=none;html=1;rounded=0;strokeWidth=6;strokeColor=#5D5C5E;" edge="1" parent="1">
          <mxGeometry width="50" height="50" relative="1" as="geometry">
            <mxPoint x="270" y="420.16" as="sourcePoint" />
            <mxPoint x="380" y="419.96000000000004" as="targetPoint" />
          </mxGeometry>
        </mxCell>
        <mxCell id="6QwXeuThkFD-9IxJBqtr-175" value="" style="endArrow=none;html=1;rounded=0;strokeWidth=6;strokeColor=#5D5C5E;" edge="1" parent="1">
          <mxGeometry width="50" height="50" relative="1" as="geometry">
            <mxPoint x="1480" y="580" as="sourcePoint" />
            <mxPoint x="1640" y="580" as="targetPoint" />
          </mxGeometry>
        </mxCell>
        <mxCell id="6QwXeuThkFD-9IxJBqtr-176" value="" style="endArrow=none;html=1;rounded=0;strokeWidth=6;strokeColor=#5D5C5E;" edge="1" parent="1">
          <mxGeometry width="50" height="50" relative="1" as="geometry">
            <mxPoint x="1460" y="560" as="sourcePoint" />
            <mxPoint x="1630" y="560" as="targetPoint" />
          </mxGeometry>
        </mxCell>
        <mxCell id="6QwXeuThkFD-9IxJBqtr-177" value="" style="endArrow=none;html=1;rounded=0;strokeWidth=6;strokeColor=#5D5C5E;" edge="1" parent="1">
          <mxGeometry width="50" height="50" relative="1" as="geometry">
            <mxPoint x="1440" y="540" as="sourcePoint" />
            <mxPoint x="1620" y="540" as="targetPoint" />
          </mxGeometry>
        </mxCell>
        <mxCell id="6QwXeuThkFD-9IxJBqtr-178" value="" style="endArrow=none;html=1;rounded=0;strokeWidth=6;strokeColor=#5D5C5E;" edge="1" parent="1">
          <mxGeometry width="50" height="50" relative="1" as="geometry">
            <mxPoint x="1480" y="260.00000000000006" as="sourcePoint" />
            <mxPoint x="1640" y="260.00000000000006" as="targetPoint" />
          </mxGeometry>
        </mxCell>
        <mxCell id="6QwXeuThkFD-9IxJBqtr-179" value="" style="endArrow=none;html=1;rounded=0;strokeWidth=6;strokeColor=#5D5C5E;" edge="1" parent="1">
          <mxGeometry width="50" height="50" relative="1" as="geometry">
            <mxPoint x="1460" y="280.00000000000006" as="sourcePoint" />
            <mxPoint x="1630" y="280.00000000000006" as="targetPoint" />
          </mxGeometry>
        </mxCell>
        <mxCell id="6QwXeuThkFD-9IxJBqtr-180" value="" style="endArrow=none;html=1;rounded=0;strokeWidth=6;strokeColor=#5D5C5E;" edge="1" parent="1">
          <mxGeometry width="50" height="50" relative="1" as="geometry">
            <mxPoint x="1440" y="299.58000000000004" as="sourcePoint" />
            <mxPoint x="1620" y="299.58000000000004" as="targetPoint" />
          </mxGeometry>
        </mxCell>
        <mxCell id="6QwXeuThkFD-9IxJBqtr-182" value="" style="endArrow=none;html=1;rounded=0;strokeWidth=6;strokeColor=#7E3CF0;" edge="1" parent="1">
          <mxGeometry width="50" height="50" relative="1" as="geometry">
            <mxPoint x="620" y="489.8" as="sourcePoint" />
            <mxPoint x="700" y="489.8" as="targetPoint" />
          </mxGeometry>
        </mxCell>
        <mxCell id="6QwXeuThkFD-9IxJBqtr-183" value="" style="endArrow=none;html=1;rounded=0;strokeWidth=6;strokeColor=#7E3CF0;" edge="1" parent="1">
          <mxGeometry width="50" height="50" relative="1" as="geometry">
            <mxPoint x="620" y="469.8" as="sourcePoint" />
            <mxPoint x="700" y="469.8" as="targetPoint" />
          </mxGeometry>
        </mxCell>
        <mxCell id="6QwXeuThkFD-9IxJBqtr-184" value="" style="endArrow=none;html=1;rounded=0;strokeWidth=6;strokeColor=#7E3CF0;" edge="1" parent="1">
          <mxGeometry width="50" height="50" relative="1" as="geometry">
            <mxPoint x="620" y="349.8" as="sourcePoint" />
            <mxPoint x="700" y="349.8" as="targetPoint" />
          </mxGeometry>
        </mxCell>
        <mxCell id="6QwXeuThkFD-9IxJBqtr-185" value="" style="endArrow=none;html=1;rounded=0;strokeWidth=6;strokeColor=#7E3CF0;" edge="1" parent="1">
          <mxGeometry width="50" height="50" relative="1" as="geometry">
            <mxPoint x="620" y="369.8" as="sourcePoint" />
            <mxPoint x="700" y="369.8" as="targetPoint" />
          </mxGeometry>
        </mxCell>
        <mxCell id="6QwXeuThkFD-9IxJBqtr-187" value="" style="ellipse;whiteSpace=wrap;html=1;fillColor=none;strokeWidth=6;strokeColor=#B6F0EA;" vertex="1" parent="1">
          <mxGeometry x="630" y="389.8" width="60" height="60" as="geometry" />
        </mxCell>
        <mxCell id="6QwXeuThkFD-9IxJBqtr-188" value="" style="rounded=0;whiteSpace=wrap;html=1;strokeColor=#C2C2C2;fillColor=none;strokeWidth=8;" vertex="1" parent="1">
          <mxGeometry x="460" y="339.58" width="160" height="160" as="geometry" />
        </mxCell>
        <mxCell id="6QwXeuThkFD-9IxJBqtr-189" value="" style="endArrow=none;html=1;rounded=0;strokeWidth=6;strokeColor=#F08A24;" edge="1" parent="1">
          <mxGeometry width="50" height="50" relative="1" as="geometry">
            <mxPoint x="514.81" y="565" as="sourcePoint" />
            <mxPoint x="514.81" y="515" as="targetPoint" />
          </mxGeometry>
        </mxCell>
        <mxCell id="6QwXeuThkFD-9IxJBqtr-190" value="" style="endArrow=none;html=1;rounded=0;strokeWidth=6;strokeColor=#F08A24;" edge="1" parent="1">
          <mxGeometry width="50" height="50" relative="1" as="geometry">
            <mxPoint x="529.81" y="565" as="sourcePoint" />
            <mxPoint x="529.81" y="515" as="targetPoint" />
          </mxGeometry>
        </mxCell>
        <mxCell id="6QwXeuThkFD-9IxJBqtr-191" value="" style="endArrow=none;html=1;rounded=0;strokeWidth=6;strokeColor=#F08A24;" edge="1" parent="1">
          <mxGeometry width="50" height="50" relative="1" as="geometry">
            <mxPoint x="564.81" y="565" as="sourcePoint" />
            <mxPoint x="564.81" y="515" as="targetPoint" />
          </mxGeometry>
        </mxCell>
        <mxCell id="6QwXeuThkFD-9IxJBqtr-192" value="" style="endArrow=none;html=1;rounded=0;strokeWidth=6;strokeColor=#F08A24;" edge="1" parent="1">
          <mxGeometry width="50" height="50" relative="1" as="geometry">
            <mxPoint x="549.81" y="565" as="sourcePoint" />
            <mxPoint x="549.81" y="515" as="targetPoint" />
          </mxGeometry>
        </mxCell>
        <mxCell id="6QwXeuThkFD-9IxJBqtr-193" value="" style="endArrow=none;html=1;rounded=0;strokeWidth=6;strokeColor=#F08A24;" edge="1" parent="1">
          <mxGeometry width="50" height="50" relative="1" as="geometry">
            <mxPoint x="514.52" y="325" as="sourcePoint" />
            <mxPoint x="514.52" y="275" as="targetPoint" />
          </mxGeometry>
        </mxCell>
        <mxCell id="6QwXeuThkFD-9IxJBqtr-194" value="" style="endArrow=none;html=1;rounded=0;strokeWidth=6;strokeColor=#F08A24;" edge="1" parent="1">
          <mxGeometry width="50" height="50" relative="1" as="geometry">
            <mxPoint x="529.52" y="325" as="sourcePoint" />
            <mxPoint x="529.52" y="275" as="targetPoint" />
          </mxGeometry>
        </mxCell>
        <mxCell id="6QwXeuThkFD-9IxJBqtr-195" value="" style="endArrow=none;html=1;rounded=0;strokeWidth=6;strokeColor=#F08A24;" edge="1" parent="1">
          <mxGeometry width="50" height="50" relative="1" as="geometry">
            <mxPoint x="564.52" y="325" as="sourcePoint" />
            <mxPoint x="564.52" y="275" as="targetPoint" />
          </mxGeometry>
        </mxCell>
        <mxCell id="6QwXeuThkFD-9IxJBqtr-196" value="" style="endArrow=none;html=1;rounded=0;strokeWidth=6;strokeColor=#F08A24;" edge="1" parent="1">
          <mxGeometry width="50" height="50" relative="1" as="geometry">
            <mxPoint x="549.52" y="325" as="sourcePoint" />
            <mxPoint x="549.52" y="275" as="targetPoint" />
          </mxGeometry>
        </mxCell>
        <mxCell id="6QwXeuThkFD-9IxJBqtr-197" value="" style="endArrow=none;html=1;rounded=0;strokeWidth=6;strokeColor=#5D5C5E;" edge="1" parent="1">
          <mxGeometry width="50" height="50" relative="1" as="geometry">
            <mxPoint x="640" y="600" as="sourcePoint" />
            <mxPoint x="640" y="510" as="targetPoint" />
          </mxGeometry>
        </mxCell>
        <mxCell id="6QwXeuThkFD-9IxJBqtr-198" value="" style="endArrow=none;html=1;rounded=0;strokeWidth=6;strokeColor=#5D5C5E;" edge="1" parent="1">
          <mxGeometry width="50" height="50" relative="1" as="geometry">
            <mxPoint x="659.7" y="600" as="sourcePoint" />
            <mxPoint x="659.7" y="510" as="targetPoint" />
          </mxGeometry>
        </mxCell>
        <mxCell id="6QwXeuThkFD-9IxJBqtr-199" value="" style="endArrow=none;html=1;rounded=0;strokeWidth=6;strokeColor=#5D5C5E;" edge="1" parent="1">
          <mxGeometry width="50" height="50" relative="1" as="geometry">
            <mxPoint x="639.78" y="330" as="sourcePoint" />
            <mxPoint x="639.78" y="240" as="targetPoint" />
          </mxGeometry>
        </mxCell>
        <mxCell id="6QwXeuThkFD-9IxJBqtr-200" value="" style="endArrow=none;html=1;rounded=0;strokeWidth=6;strokeColor=#5D5C5E;" edge="1" parent="1">
          <mxGeometry width="50" height="50" relative="1" as="geometry">
            <mxPoint x="679.78" y="330" as="sourcePoint" />
            <mxPoint x="679.78" y="240" as="targetPoint" />
          </mxGeometry>
        </mxCell>
        <mxCell id="6QwXeuThkFD-9IxJBqtr-201" value="" style="endArrow=none;html=1;rounded=0;strokeWidth=6;strokeColor=#5D5C5E;" edge="1" parent="1">
          <mxGeometry width="50" height="50" relative="1" as="geometry">
            <mxPoint x="680" y="600" as="sourcePoint" />
            <mxPoint x="680" y="510" as="targetPoint" />
          </mxGeometry>
        </mxCell>
        <mxCell id="6QwXeuThkFD-9IxJBqtr-202" value="" style="endArrow=none;html=1;rounded=0;strokeWidth=6;strokeColor=#5D5C5E;" edge="1" parent="1">
          <mxGeometry width="50" height="50" relative="1" as="geometry">
            <mxPoint x="659.7" y="330" as="sourcePoint" />
            <mxPoint x="659.7" y="240" as="targetPoint" />
          </mxGeometry>
        </mxCell>
        <mxCell id="6QwXeuThkFD-9IxJBqtr-204" value="" style="endArrow=none;html=1;rounded=0;strokeWidth=6;strokeColor=#7E3CF0;" edge="1" parent="1">
          <mxGeometry width="50" height="50" relative="1" as="geometry">
            <mxPoint x="260" y="1510.16" as="sourcePoint" />
            <mxPoint x="460" y="1509.8" as="targetPoint" />
          </mxGeometry>
        </mxCell>
        <mxCell id="6QwXeuThkFD-9IxJBqtr-205" value="" style="endArrow=none;html=1;rounded=0;strokeWidth=6;strokeColor=#7E3CF0;" edge="1" parent="1">
          <mxGeometry width="50" height="50" relative="1" as="geometry">
            <mxPoint x="260" y="1490.16" as="sourcePoint" />
            <mxPoint x="460" y="1489.8" as="targetPoint" />
          </mxGeometry>
        </mxCell>
        <mxCell id="6QwXeuThkFD-9IxJBqtr-206" value="" style="endArrow=none;html=1;rounded=0;strokeWidth=6;strokeColor=#7E3CF0;" edge="1" parent="1">
          <mxGeometry width="50" height="50" relative="1" as="geometry">
            <mxPoint x="260" y="1630.16" as="sourcePoint" />
            <mxPoint x="460" y="1629.8" as="targetPoint" />
          </mxGeometry>
        </mxCell>
        <mxCell id="6QwXeuThkFD-9IxJBqtr-207" value="" style="endArrow=none;html=1;rounded=0;strokeWidth=6;strokeColor=#7E3CF0;" edge="1" parent="1">
          <mxGeometry width="50" height="50" relative="1" as="geometry">
            <mxPoint x="260" y="1610.16" as="sourcePoint" />
            <mxPoint x="460" y="1609.8" as="targetPoint" />
          </mxGeometry>
        </mxCell>
        <mxCell id="6QwXeuThkFD-9IxJBqtr-208" value="" style="endArrow=none;html=1;rounded=0;strokeWidth=6;strokeColor=#7E3CF0;" edge="1" parent="1">
          <mxGeometry width="50" height="50" relative="1" as="geometry">
            <mxPoint x="1580" y="1629.74" as="sourcePoint" />
            <mxPoint x="1660" y="1629.74" as="targetPoint" />
          </mxGeometry>
        </mxCell>
        <mxCell id="6QwXeuThkFD-9IxJBqtr-209" value="" style="endArrow=none;html=1;rounded=0;strokeWidth=6;strokeColor=#7E3CF0;" edge="1" parent="1">
          <mxGeometry width="50" height="50" relative="1" as="geometry">
            <mxPoint x="1580" y="1609.74" as="sourcePoint" />
            <mxPoint x="1660" y="1609.74" as="targetPoint" />
          </mxGeometry>
        </mxCell>
        <mxCell id="6QwXeuThkFD-9IxJBqtr-210" value="" style="endArrow=none;html=1;rounded=0;strokeWidth=6;strokeColor=#7E3CF0;" edge="1" parent="1">
          <mxGeometry width="50" height="50" relative="1" as="geometry">
            <mxPoint x="1580" y="1489.74" as="sourcePoint" />
            <mxPoint x="1660" y="1489.74" as="targetPoint" />
          </mxGeometry>
        </mxCell>
        <mxCell id="6QwXeuThkFD-9IxJBqtr-211" value="" style="endArrow=none;html=1;rounded=0;strokeWidth=6;strokeColor=#7E3CF0;" edge="1" parent="1">
          <mxGeometry width="50" height="50" relative="1" as="geometry">
            <mxPoint x="1580" y="1509.74" as="sourcePoint" />
            <mxPoint x="1660" y="1509.74" as="targetPoint" />
          </mxGeometry>
        </mxCell>
        <mxCell id="6QwXeuThkFD-9IxJBqtr-212" value="" style="endArrow=none;html=1;rounded=0;strokeWidth=6;strokeColor=#7E3CF0;" edge="1" parent="1">
          <mxGeometry width="50" height="50" relative="1" as="geometry">
            <mxPoint x="1340" y="1630" as="sourcePoint" />
            <mxPoint x="1420" y="1630" as="targetPoint" />
          </mxGeometry>
        </mxCell>
        <mxCell id="6QwXeuThkFD-9IxJBqtr-213" value="" style="endArrow=none;html=1;rounded=0;strokeWidth=6;strokeColor=#7E3CF0;" edge="1" parent="1">
          <mxGeometry width="50" height="50" relative="1" as="geometry">
            <mxPoint x="1340" y="1610" as="sourcePoint" />
            <mxPoint x="1420" y="1610" as="targetPoint" />
          </mxGeometry>
        </mxCell>
        <mxCell id="6QwXeuThkFD-9IxJBqtr-214" value="" style="endArrow=none;html=1;rounded=0;strokeWidth=6;strokeColor=#7E3CF0;" edge="1" parent="1">
          <mxGeometry width="50" height="50" relative="1" as="geometry">
            <mxPoint x="1340" y="1510" as="sourcePoint" />
            <mxPoint x="1420" y="1510" as="targetPoint" />
          </mxGeometry>
        </mxCell>
        <mxCell id="6QwXeuThkFD-9IxJBqtr-215" value="" style="endArrow=none;html=1;rounded=0;strokeWidth=6;strokeColor=#7E3CF0;" edge="1" parent="1">
          <mxGeometry width="50" height="50" relative="1" as="geometry">
            <mxPoint x="1340" y="1490" as="sourcePoint" />
            <mxPoint x="1420" y="1490" as="targetPoint" />
          </mxGeometry>
        </mxCell>
        <mxCell id="6QwXeuThkFD-9IxJBqtr-216" value="" style="endArrow=none;html=1;rounded=0;strokeWidth=6;strokeColor=#7E3CF0;" edge="1" parent="1">
          <mxGeometry width="50" height="50" relative="1" as="geometry">
            <mxPoint x="860" y="1630" as="sourcePoint" />
            <mxPoint x="940" y="1630" as="targetPoint" />
          </mxGeometry>
        </mxCell>
        <mxCell id="6QwXeuThkFD-9IxJBqtr-217" value="" style="endArrow=none;html=1;rounded=0;strokeWidth=6;strokeColor=#7E3CF0;" edge="1" parent="1">
          <mxGeometry width="50" height="50" relative="1" as="geometry">
            <mxPoint x="860" y="1610" as="sourcePoint" />
            <mxPoint x="940" y="1610" as="targetPoint" />
          </mxGeometry>
        </mxCell>
        <mxCell id="6QwXeuThkFD-9IxJBqtr-218" value="" style="endArrow=none;html=1;rounded=0;strokeWidth=6;strokeColor=#7E3CF0;" edge="1" parent="1">
          <mxGeometry width="50" height="50" relative="1" as="geometry">
            <mxPoint x="860" y="1490" as="sourcePoint" />
            <mxPoint x="940" y="1490" as="targetPoint" />
          </mxGeometry>
        </mxCell>
        <mxCell id="6QwXeuThkFD-9IxJBqtr-219" value="" style="endArrow=none;html=1;rounded=0;strokeWidth=6;strokeColor=#7E3CF0;" edge="1" parent="1">
          <mxGeometry width="50" height="50" relative="1" as="geometry">
            <mxPoint x="860" y="1510" as="sourcePoint" />
            <mxPoint x="940" y="1510" as="targetPoint" />
          </mxGeometry>
        </mxCell>
        <mxCell id="6QwXeuThkFD-9IxJBqtr-220" value="" style="endArrow=none;html=1;rounded=0;strokeWidth=6;strokeColor=#7E3CF0;" edge="1" parent="1">
          <mxGeometry width="50" height="50" relative="1" as="geometry">
            <mxPoint x="1100" y="1610" as="sourcePoint" />
            <mxPoint x="1180" y="1610" as="targetPoint" />
          </mxGeometry>
        </mxCell>
        <mxCell id="6QwXeuThkFD-9IxJBqtr-221" value="" style="endArrow=none;html=1;rounded=0;strokeWidth=6;strokeColor=#7E3CF0;" edge="1" parent="1">
          <mxGeometry width="50" height="50" relative="1" as="geometry">
            <mxPoint x="1100" y="1630" as="sourcePoint" />
            <mxPoint x="1180" y="1630" as="targetPoint" />
          </mxGeometry>
        </mxCell>
        <mxCell id="6QwXeuThkFD-9IxJBqtr-222" value="" style="endArrow=none;html=1;rounded=0;strokeWidth=6;strokeColor=#7E3CF0;" edge="1" parent="1">
          <mxGeometry width="50" height="50" relative="1" as="geometry">
            <mxPoint x="1100" y="1490" as="sourcePoint" />
            <mxPoint x="1180" y="1490" as="targetPoint" />
          </mxGeometry>
        </mxCell>
        <mxCell id="6QwXeuThkFD-9IxJBqtr-223" value="" style="endArrow=none;html=1;rounded=0;strokeWidth=6;strokeColor=#7E3CF0;" edge="1" parent="1">
          <mxGeometry width="50" height="50" relative="1" as="geometry">
            <mxPoint x="1100" y="1510" as="sourcePoint" />
            <mxPoint x="1180" y="1510" as="targetPoint" />
          </mxGeometry>
        </mxCell>
        <mxCell id="6QwXeuThkFD-9IxJBqtr-224" value="" style="endArrow=none;html=1;rounded=0;strokeWidth=6;strokeColor=#FFFFFF;" edge="1" parent="1">
          <mxGeometry width="50" height="50" relative="1" as="geometry">
            <mxPoint x="1660" y="1580" as="sourcePoint" />
            <mxPoint x="1660" y="1580" as="targetPoint" />
            <Array as="points">
              <mxPoint x="1660" y="1640" />
              <mxPoint x="1700" y="1670" />
              <mxPoint x="1700" y="1770" />
              <mxPoint x="1440" y="2120" />
              <mxPoint x="1280" y="2120" />
              <mxPoint x="1380" y="1720" />
              <mxPoint x="1220" y="1720" />
              <mxPoint x="1140" y="1800" />
              <mxPoint x="900" y="1800" />
              <mxPoint x="820" y="1720" />
              <mxPoint x="740" y="1720" />
              <mxPoint x="700" y="1760" />
              <mxPoint x="620" y="1760" />
              <mxPoint x="580" y="1720" />
              <mxPoint x="380" y="1720" />
              <mxPoint x="260" y="1640" />
              <mxPoint x="260" y="1480" />
              <mxPoint x="380" y="1400" />
              <mxPoint x="580" y="1400" />
              <mxPoint x="620" y="1360" />
              <mxPoint x="700" y="1360" />
              <mxPoint x="740" y="1400" />
              <mxPoint x="820" y="1400" />
              <mxPoint x="900" y="1320" />
              <mxPoint x="1140" y="1320" />
              <mxPoint x="1220" y="1400" />
              <mxPoint x="1380" y="1400" />
              <mxPoint x="1280" y="1000" />
              <mxPoint x="1440" y="1000" />
              <mxPoint x="1700" y="1350" />
              <mxPoint x="1700" y="1450" />
              <mxPoint x="1660" y="1480" />
            </Array>
          </mxGeometry>
        </mxCell>
        <mxCell id="6QwXeuThkFD-9IxJBqtr-225" value="" style="rounded=0;whiteSpace=wrap;html=1;strokeColor=#C2C2C2;fillColor=none;strokeWidth=8;" vertex="1" parent="1">
          <mxGeometry x="700" y="1480" width="160" height="160" as="geometry" />
        </mxCell>
        <mxCell id="6QwXeuThkFD-9IxJBqtr-226" value="" style="rounded=0;whiteSpace=wrap;html=1;strokeColor=#C2C2C2;fillColor=none;strokeWidth=8;" vertex="1" parent="1">
          <mxGeometry x="1180" y="1480" width="160" height="160" as="geometry" />
        </mxCell>
        <mxCell id="6QwXeuThkFD-9IxJBqtr-227" value="" style="rounded=0;whiteSpace=wrap;html=1;strokeColor=#C2C2C2;fillColor=none;strokeWidth=8;" vertex="1" parent="1">
          <mxGeometry x="940" y="1370" width="160" height="160" as="geometry" />
        </mxCell>
        <mxCell id="6QwXeuThkFD-9IxJBqtr-228" value="" style="rounded=0;whiteSpace=wrap;html=1;strokeColor=#C2C2C2;fillColor=none;strokeWidth=8;" vertex="1" parent="1">
          <mxGeometry x="940" y="1590" width="160" height="160" as="geometry" />
        </mxCell>
        <mxCell id="6QwXeuThkFD-9IxJBqtr-229" value="" style="rounded=0;whiteSpace=wrap;html=1;strokeColor=#C2C2C2;fillColor=none;strokeWidth=8;" vertex="1" parent="1">
          <mxGeometry x="1420" y="1480" width="160" height="160" as="geometry" />
        </mxCell>
        <mxCell id="6QwXeuThkFD-9IxJBqtr-230" value="" style="endArrow=none;html=1;rounded=0;strokeWidth=6;strokeColor=#62BCF0;" edge="1" parent="1">
          <mxGeometry width="50" height="50" relative="1" as="geometry">
            <mxPoint x="950" y="1580" as="sourcePoint" />
            <mxPoint x="950" y="1540" as="targetPoint" />
          </mxGeometry>
        </mxCell>
        <mxCell id="6QwXeuThkFD-9IxJBqtr-231" value="" style="endArrow=none;html=1;rounded=0;strokeWidth=6;strokeColor=#62BCF0;" edge="1" parent="1">
          <mxGeometry width="50" height="50" relative="1" as="geometry">
            <mxPoint x="970" y="1580" as="sourcePoint" />
            <mxPoint x="970" y="1540" as="targetPoint" />
          </mxGeometry>
        </mxCell>
        <mxCell id="6QwXeuThkFD-9IxJBqtr-232" value="" style="endArrow=none;html=1;rounded=0;strokeWidth=6;strokeColor=#62BCF0;" edge="1" parent="1">
          <mxGeometry width="50" height="50" relative="1" as="geometry">
            <mxPoint x="1090" y="1580" as="sourcePoint" />
            <mxPoint x="1090" y="1540" as="targetPoint" />
          </mxGeometry>
        </mxCell>
        <mxCell id="6QwXeuThkFD-9IxJBqtr-233" value="" style="endArrow=none;html=1;rounded=0;strokeWidth=6;strokeColor=#62BCF0;" edge="1" parent="1">
          <mxGeometry width="50" height="50" relative="1" as="geometry">
            <mxPoint x="1070" y="1580" as="sourcePoint" />
            <mxPoint x="1070" y="1540" as="targetPoint" />
          </mxGeometry>
        </mxCell>
        <mxCell id="6QwXeuThkFD-9IxJBqtr-234" value="" style="endArrow=none;html=1;rounded=0;strokeWidth=6;strokeColor=#62BCF0;" edge="1" parent="1">
          <mxGeometry width="50" height="50" relative="1" as="geometry">
            <mxPoint x="1030" y="1580" as="sourcePoint" />
            <mxPoint x="1030" y="1540" as="targetPoint" />
          </mxGeometry>
        </mxCell>
        <mxCell id="6QwXeuThkFD-9IxJBqtr-235" value="" style="endArrow=none;html=1;rounded=0;strokeWidth=6;strokeColor=#62BCF0;" edge="1" parent="1">
          <mxGeometry width="50" height="50" relative="1" as="geometry">
            <mxPoint x="1010" y="1580" as="sourcePoint" />
            <mxPoint x="1010" y="1540" as="targetPoint" />
          </mxGeometry>
        </mxCell>
        <mxCell id="6QwXeuThkFD-9IxJBqtr-236" value="" style="ellipse;whiteSpace=wrap;html=1;fillColor=none;strokeWidth=6;strokeColor=#B6F0EA;" vertex="1" parent="1">
          <mxGeometry x="870" y="1530" width="60" height="60" as="geometry" />
        </mxCell>
        <mxCell id="6QwXeuThkFD-9IxJBqtr-237" value="" style="ellipse;whiteSpace=wrap;html=1;fillColor=none;strokeWidth=6;strokeColor=#B6F0EA;" vertex="1" parent="1">
          <mxGeometry x="1110" y="1530" width="60" height="60" as="geometry" />
        </mxCell>
        <mxCell id="6QwXeuThkFD-9IxJBqtr-238" value="" style="ellipse;whiteSpace=wrap;html=1;fillColor=none;strokeWidth=6;strokeColor=#B6F0EA;" vertex="1" parent="1">
          <mxGeometry x="1350" y="1530" width="60" height="60" as="geometry" />
        </mxCell>
        <mxCell id="6QwXeuThkFD-9IxJBqtr-239" value="" style="endArrow=none;html=1;rounded=0;strokeWidth=6;strokeColor=#F08A24;" edge="1" parent="1">
          <mxGeometry width="50" height="50" relative="1" as="geometry">
            <mxPoint x="1235" y="1705" as="sourcePoint" />
            <mxPoint x="1235" y="1655" as="targetPoint" />
          </mxGeometry>
        </mxCell>
        <mxCell id="6QwXeuThkFD-9IxJBqtr-240" value="" style="endArrow=none;html=1;rounded=0;strokeWidth=6;strokeColor=#F08A24;" edge="1" parent="1">
          <mxGeometry width="50" height="50" relative="1" as="geometry">
            <mxPoint x="1250" y="1705" as="sourcePoint" />
            <mxPoint x="1250" y="1655" as="targetPoint" />
          </mxGeometry>
        </mxCell>
        <mxCell id="6QwXeuThkFD-9IxJBqtr-241" value="" style="endArrow=none;html=1;rounded=0;strokeWidth=6;strokeColor=#F08A24;" edge="1" parent="1">
          <mxGeometry width="50" height="50" relative="1" as="geometry">
            <mxPoint x="1285" y="1705" as="sourcePoint" />
            <mxPoint x="1285" y="1655" as="targetPoint" />
          </mxGeometry>
        </mxCell>
        <mxCell id="6QwXeuThkFD-9IxJBqtr-242" value="" style="endArrow=none;html=1;rounded=0;strokeWidth=6;strokeColor=#F08A24;" edge="1" parent="1">
          <mxGeometry width="50" height="50" relative="1" as="geometry">
            <mxPoint x="1270" y="1705" as="sourcePoint" />
            <mxPoint x="1270" y="1655" as="targetPoint" />
          </mxGeometry>
        </mxCell>
        <mxCell id="6QwXeuThkFD-9IxJBqtr-243" value="" style="endArrow=none;html=1;rounded=0;strokeWidth=6;strokeColor=#F08A24;" edge="1" parent="1">
          <mxGeometry width="50" height="50" relative="1" as="geometry">
            <mxPoint x="1234.71" y="1465" as="sourcePoint" />
            <mxPoint x="1234.71" y="1415" as="targetPoint" />
          </mxGeometry>
        </mxCell>
        <mxCell id="6QwXeuThkFD-9IxJBqtr-244" value="" style="endArrow=none;html=1;rounded=0;strokeWidth=6;strokeColor=#F08A24;" edge="1" parent="1">
          <mxGeometry width="50" height="50" relative="1" as="geometry">
            <mxPoint x="1249.71" y="1465" as="sourcePoint" />
            <mxPoint x="1249.71" y="1415" as="targetPoint" />
          </mxGeometry>
        </mxCell>
        <mxCell id="6QwXeuThkFD-9IxJBqtr-245" value="" style="endArrow=none;html=1;rounded=0;strokeWidth=6;strokeColor=#F08A24;" edge="1" parent="1">
          <mxGeometry width="50" height="50" relative="1" as="geometry">
            <mxPoint x="1284.71" y="1465" as="sourcePoint" />
            <mxPoint x="1284.71" y="1415" as="targetPoint" />
          </mxGeometry>
        </mxCell>
        <mxCell id="6QwXeuThkFD-9IxJBqtr-246" value="" style="endArrow=none;html=1;rounded=0;strokeWidth=6;strokeColor=#F08A24;" edge="1" parent="1">
          <mxGeometry width="50" height="50" relative="1" as="geometry">
            <mxPoint x="1269.71" y="1465" as="sourcePoint" />
            <mxPoint x="1269.71" y="1415" as="targetPoint" />
          </mxGeometry>
        </mxCell>
        <mxCell id="6QwXeuThkFD-9IxJBqtr-247" value="" style="endArrow=none;html=1;rounded=0;strokeWidth=6;strokeColor=#F08A24;" edge="1" parent="1">
          <mxGeometry width="50" height="50" relative="1" as="geometry">
            <mxPoint x="754.86" y="1705" as="sourcePoint" />
            <mxPoint x="754.86" y="1655" as="targetPoint" />
          </mxGeometry>
        </mxCell>
        <mxCell id="6QwXeuThkFD-9IxJBqtr-248" value="" style="endArrow=none;html=1;rounded=0;strokeWidth=6;strokeColor=#F08A24;" edge="1" parent="1">
          <mxGeometry width="50" height="50" relative="1" as="geometry">
            <mxPoint x="769.86" y="1705" as="sourcePoint" />
            <mxPoint x="769.86" y="1655" as="targetPoint" />
          </mxGeometry>
        </mxCell>
        <mxCell id="6QwXeuThkFD-9IxJBqtr-249" value="" style="endArrow=none;html=1;rounded=0;strokeWidth=6;strokeColor=#F08A24;" edge="1" parent="1">
          <mxGeometry width="50" height="50" relative="1" as="geometry">
            <mxPoint x="804.86" y="1705" as="sourcePoint" />
            <mxPoint x="804.86" y="1655" as="targetPoint" />
          </mxGeometry>
        </mxCell>
        <mxCell id="6QwXeuThkFD-9IxJBqtr-250" value="" style="endArrow=none;html=1;rounded=0;strokeWidth=6;strokeColor=#F08A24;" edge="1" parent="1">
          <mxGeometry width="50" height="50" relative="1" as="geometry">
            <mxPoint x="789.86" y="1705" as="sourcePoint" />
            <mxPoint x="789.86" y="1655" as="targetPoint" />
          </mxGeometry>
        </mxCell>
        <mxCell id="6QwXeuThkFD-9IxJBqtr-251" value="" style="endArrow=none;html=1;rounded=0;strokeWidth=6;strokeColor=#F08A24;" edge="1" parent="1">
          <mxGeometry width="50" height="50" relative="1" as="geometry">
            <mxPoint x="754.57" y="1465" as="sourcePoint" />
            <mxPoint x="754.57" y="1415" as="targetPoint" />
          </mxGeometry>
        </mxCell>
        <mxCell id="6QwXeuThkFD-9IxJBqtr-252" value="" style="endArrow=none;html=1;rounded=0;strokeWidth=6;strokeColor=#F08A24;" edge="1" parent="1">
          <mxGeometry width="50" height="50" relative="1" as="geometry">
            <mxPoint x="769.57" y="1465" as="sourcePoint" />
            <mxPoint x="769.57" y="1415" as="targetPoint" />
          </mxGeometry>
        </mxCell>
        <mxCell id="6QwXeuThkFD-9IxJBqtr-253" value="" style="endArrow=none;html=1;rounded=0;strokeWidth=6;strokeColor=#F08A24;" edge="1" parent="1">
          <mxGeometry width="50" height="50" relative="1" as="geometry">
            <mxPoint x="804.57" y="1465" as="sourcePoint" />
            <mxPoint x="804.57" y="1415" as="targetPoint" />
          </mxGeometry>
        </mxCell>
        <mxCell id="6QwXeuThkFD-9IxJBqtr-254" value="" style="endArrow=none;html=1;rounded=0;strokeWidth=6;strokeColor=#F08A24;" edge="1" parent="1">
          <mxGeometry width="50" height="50" relative="1" as="geometry">
            <mxPoint x="789.57" y="1465" as="sourcePoint" />
            <mxPoint x="789.57" y="1415" as="targetPoint" />
          </mxGeometry>
        </mxCell>
        <mxCell id="6QwXeuThkFD-9IxJBqtr-255" value="" style="ellipse;whiteSpace=wrap;html=1;fillColor=none;strokeWidth=6;strokeColor=#B6F0EA;" vertex="1" parent="1">
          <mxGeometry x="1590" y="1530" width="60" height="60" as="geometry" />
        </mxCell>
        <mxCell id="6QwXeuThkFD-9IxJBqtr-256" value="" style="ellipse;whiteSpace=wrap;html=1;fillColor=none;strokeWidth=6;strokeColor=#B6F0EA;" vertex="1" parent="1">
          <mxGeometry x="390" y="1529.8" width="60" height="60" as="geometry" />
        </mxCell>
        <mxCell id="6QwXeuThkFD-9IxJBqtr-257" value="" style="endArrow=none;html=1;rounded=0;strokeWidth=6;strokeColor=#5D5C5E;" edge="1" parent="1">
          <mxGeometry width="50" height="50" relative="1" as="geometry">
            <mxPoint x="270" y="1560.16" as="sourcePoint" />
            <mxPoint x="380" y="1559.96" as="targetPoint" />
          </mxGeometry>
        </mxCell>
        <mxCell id="6QwXeuThkFD-9IxJBqtr-264" value="" style="endArrow=none;html=1;rounded=0;strokeWidth=6;strokeColor=#7E3CF0;" edge="1" parent="1">
          <mxGeometry width="50" height="50" relative="1" as="geometry">
            <mxPoint x="620" y="1629.8" as="sourcePoint" />
            <mxPoint x="700" y="1629.8" as="targetPoint" />
          </mxGeometry>
        </mxCell>
        <mxCell id="6QwXeuThkFD-9IxJBqtr-265" value="" style="endArrow=none;html=1;rounded=0;strokeWidth=6;strokeColor=#7E3CF0;" edge="1" parent="1">
          <mxGeometry width="50" height="50" relative="1" as="geometry">
            <mxPoint x="620" y="1609.8" as="sourcePoint" />
            <mxPoint x="700" y="1609.8" as="targetPoint" />
          </mxGeometry>
        </mxCell>
        <mxCell id="6QwXeuThkFD-9IxJBqtr-266" value="" style="endArrow=none;html=1;rounded=0;strokeWidth=6;strokeColor=#7E3CF0;" edge="1" parent="1">
          <mxGeometry width="50" height="50" relative="1" as="geometry">
            <mxPoint x="620" y="1489.8" as="sourcePoint" />
            <mxPoint x="700" y="1489.8" as="targetPoint" />
          </mxGeometry>
        </mxCell>
        <mxCell id="6QwXeuThkFD-9IxJBqtr-267" value="" style="endArrow=none;html=1;rounded=0;strokeWidth=6;strokeColor=#7E3CF0;" edge="1" parent="1">
          <mxGeometry width="50" height="50" relative="1" as="geometry">
            <mxPoint x="620" y="1509.8" as="sourcePoint" />
            <mxPoint x="700" y="1509.8" as="targetPoint" />
          </mxGeometry>
        </mxCell>
        <mxCell id="6QwXeuThkFD-9IxJBqtr-268" value="" style="ellipse;whiteSpace=wrap;html=1;fillColor=none;strokeWidth=6;strokeColor=#B6F0EA;" vertex="1" parent="1">
          <mxGeometry x="630" y="1529.8" width="60" height="60" as="geometry" />
        </mxCell>
        <mxCell id="6QwXeuThkFD-9IxJBqtr-269" value="" style="rounded=0;whiteSpace=wrap;html=1;strokeColor=#C2C2C2;fillColor=none;strokeWidth=8;" vertex="1" parent="1">
          <mxGeometry x="460" y="1479.58" width="160" height="160" as="geometry" />
        </mxCell>
        <mxCell id="6QwXeuThkFD-9IxJBqtr-270" value="" style="endArrow=none;html=1;rounded=0;strokeWidth=6;strokeColor=#F08A24;" edge="1" parent="1">
          <mxGeometry width="50" height="50" relative="1" as="geometry">
            <mxPoint x="514.81" y="1705" as="sourcePoint" />
            <mxPoint x="514.81" y="1655" as="targetPoint" />
          </mxGeometry>
        </mxCell>
        <mxCell id="6QwXeuThkFD-9IxJBqtr-271" value="" style="endArrow=none;html=1;rounded=0;strokeWidth=6;strokeColor=#F08A24;" edge="1" parent="1">
          <mxGeometry width="50" height="50" relative="1" as="geometry">
            <mxPoint x="529.81" y="1705" as="sourcePoint" />
            <mxPoint x="529.81" y="1655" as="targetPoint" />
          </mxGeometry>
        </mxCell>
        <mxCell id="6QwXeuThkFD-9IxJBqtr-272" value="" style="endArrow=none;html=1;rounded=0;strokeWidth=6;strokeColor=#F08A24;" edge="1" parent="1">
          <mxGeometry width="50" height="50" relative="1" as="geometry">
            <mxPoint x="564.81" y="1705" as="sourcePoint" />
            <mxPoint x="564.81" y="1655" as="targetPoint" />
          </mxGeometry>
        </mxCell>
        <mxCell id="6QwXeuThkFD-9IxJBqtr-273" value="" style="endArrow=none;html=1;rounded=0;strokeWidth=6;strokeColor=#F08A24;" edge="1" parent="1">
          <mxGeometry width="50" height="50" relative="1" as="geometry">
            <mxPoint x="549.81" y="1705" as="sourcePoint" />
            <mxPoint x="549.81" y="1655" as="targetPoint" />
          </mxGeometry>
        </mxCell>
        <mxCell id="6QwXeuThkFD-9IxJBqtr-274" value="" style="endArrow=none;html=1;rounded=0;strokeWidth=6;strokeColor=#F08A24;" edge="1" parent="1">
          <mxGeometry width="50" height="50" relative="1" as="geometry">
            <mxPoint x="514.52" y="1465" as="sourcePoint" />
            <mxPoint x="514.52" y="1415" as="targetPoint" />
          </mxGeometry>
        </mxCell>
        <mxCell id="6QwXeuThkFD-9IxJBqtr-275" value="" style="endArrow=none;html=1;rounded=0;strokeWidth=6;strokeColor=#F08A24;" edge="1" parent="1">
          <mxGeometry width="50" height="50" relative="1" as="geometry">
            <mxPoint x="529.52" y="1465" as="sourcePoint" />
            <mxPoint x="529.52" y="1415" as="targetPoint" />
          </mxGeometry>
        </mxCell>
        <mxCell id="6QwXeuThkFD-9IxJBqtr-276" value="" style="endArrow=none;html=1;rounded=0;strokeWidth=6;strokeColor=#F08A24;" edge="1" parent="1">
          <mxGeometry width="50" height="50" relative="1" as="geometry">
            <mxPoint x="564.52" y="1465" as="sourcePoint" />
            <mxPoint x="564.52" y="1415" as="targetPoint" />
          </mxGeometry>
        </mxCell>
        <mxCell id="6QwXeuThkFD-9IxJBqtr-277" value="" style="endArrow=none;html=1;rounded=0;strokeWidth=6;strokeColor=#F08A24;" edge="1" parent="1">
          <mxGeometry width="50" height="50" relative="1" as="geometry">
            <mxPoint x="549.52" y="1465" as="sourcePoint" />
            <mxPoint x="549.52" y="1415" as="targetPoint" />
          </mxGeometry>
        </mxCell>
        <mxCell id="6QwXeuThkFD-9IxJBqtr-278" value="" style="endArrow=none;html=1;rounded=0;strokeWidth=6;strokeColor=#5D5C5E;" edge="1" parent="1">
          <mxGeometry width="50" height="50" relative="1" as="geometry">
            <mxPoint x="640" y="1740" as="sourcePoint" />
            <mxPoint x="640" y="1650" as="targetPoint" />
          </mxGeometry>
        </mxCell>
        <mxCell id="6QwXeuThkFD-9IxJBqtr-279" value="" style="endArrow=none;html=1;rounded=0;strokeWidth=6;strokeColor=#5D5C5E;" edge="1" parent="1">
          <mxGeometry width="50" height="50" relative="1" as="geometry">
            <mxPoint x="659.7" y="1740" as="sourcePoint" />
            <mxPoint x="659.7" y="1650" as="targetPoint" />
          </mxGeometry>
        </mxCell>
        <mxCell id="6QwXeuThkFD-9IxJBqtr-280" value="" style="endArrow=none;html=1;rounded=0;strokeWidth=6;strokeColor=#5D5C5E;" edge="1" parent="1">
          <mxGeometry width="50" height="50" relative="1" as="geometry">
            <mxPoint x="639.78" y="1470" as="sourcePoint" />
            <mxPoint x="639.78" y="1380" as="targetPoint" />
          </mxGeometry>
        </mxCell>
        <mxCell id="6QwXeuThkFD-9IxJBqtr-281" value="" style="endArrow=none;html=1;rounded=0;strokeWidth=6;strokeColor=#5D5C5E;" edge="1" parent="1">
          <mxGeometry width="50" height="50" relative="1" as="geometry">
            <mxPoint x="679.78" y="1470" as="sourcePoint" />
            <mxPoint x="679.78" y="1380" as="targetPoint" />
          </mxGeometry>
        </mxCell>
        <mxCell id="6QwXeuThkFD-9IxJBqtr-282" value="" style="endArrow=none;html=1;rounded=0;strokeWidth=6;strokeColor=#5D5C5E;" edge="1" parent="1">
          <mxGeometry width="50" height="50" relative="1" as="geometry">
            <mxPoint x="680" y="1740" as="sourcePoint" />
            <mxPoint x="680" y="1650" as="targetPoint" />
          </mxGeometry>
        </mxCell>
        <mxCell id="6QwXeuThkFD-9IxJBqtr-283" value="" style="endArrow=none;html=1;rounded=0;strokeWidth=6;strokeColor=#5D5C5E;" edge="1" parent="1">
          <mxGeometry width="50" height="50" relative="1" as="geometry">
            <mxPoint x="659.7" y="1470" as="sourcePoint" />
            <mxPoint x="659.7" y="1380" as="targetPoint" />
          </mxGeometry>
        </mxCell>
        <mxCell id="6QwXeuThkFD-9IxJBqtr-285" value="" style="rounded=0;whiteSpace=wrap;html=1;strokeColor=#C2C2C2;fillColor=none;strokeWidth=8;" vertex="1" parent="1">
          <mxGeometry x="1420" y="1720" width="160" height="160" as="geometry" />
        </mxCell>
        <mxCell id="6QwXeuThkFD-9IxJBqtr-287" value="" style="ellipse;whiteSpace=wrap;html=1;fillColor=none;strokeWidth=6;strokeColor=#B6F0EA;" vertex="1" parent="1">
          <mxGeometry x="1470" y="1410" width="60" height="60" as="geometry" />
        </mxCell>
        <mxCell id="6QwXeuThkFD-9IxJBqtr-288" value="" style="ellipse;whiteSpace=wrap;html=1;fillColor=none;strokeWidth=6;strokeColor=#B6F0EA;" vertex="1" parent="1">
          <mxGeometry x="1470" y="1650" width="60" height="60" as="geometry" />
        </mxCell>
        <mxCell id="6QwXeuThkFD-9IxJBqtr-289" value="" style="rounded=0;whiteSpace=wrap;html=1;strokeColor=#C2C2C2;fillColor=none;strokeWidth=8;" vertex="1" parent="1">
          <mxGeometry x="1420" y="1240" width="160" height="160" as="geometry" />
        </mxCell>
        <mxCell id="6QwXeuThkFD-9IxJBqtr-311" value="" style="endArrow=none;html=1;rounded=0;strokeWidth=6;strokeColor=#5D5C5E;" edge="1" parent="1">
          <mxGeometry width="50" height="50" relative="1" as="geometry">
            <mxPoint x="1690" y="1380.6999999999998" as="sourcePoint" />
            <mxPoint x="1590" y="1380" as="targetPoint" />
          </mxGeometry>
        </mxCell>
        <mxCell id="6QwXeuThkFD-9IxJBqtr-313" value="" style="endArrow=none;html=1;rounded=0;strokeWidth=6;strokeColor=#5D5C5E;" edge="1" parent="1">
          <mxGeometry width="50" height="50" relative="1" as="geometry">
            <mxPoint x="1690" y="1740.35" as="sourcePoint" />
            <mxPoint x="1590" y="1740" as="targetPoint" />
          </mxGeometry>
        </mxCell>
        <mxCell id="6QwXeuThkFD-9IxJBqtr-321" value="" style="endArrow=none;html=1;rounded=0;strokeWidth=6;strokeColor=#FFFFFF;" edge="1" parent="1">
          <mxGeometry width="50" height="50" relative="1" as="geometry">
            <mxPoint x="1603" y="1900" as="sourcePoint" />
            <mxPoint x="1335" y="1900" as="targetPoint" />
          </mxGeometry>
        </mxCell>
        <mxCell id="6QwXeuThkFD-9IxJBqtr-343" value="" style="endArrow=none;html=1;rounded=0;strokeWidth=6;strokeColor=#FFFFFF;" edge="1" parent="1">
          <mxGeometry width="50" height="50" relative="1" as="geometry">
            <mxPoint x="1604" y="1220" as="sourcePoint" />
            <mxPoint x="1336" y="1220" as="targetPoint" />
          </mxGeometry>
        </mxCell>
        <mxCell id="6QwXeuThkFD-9IxJBqtr-353" value="" style="endArrow=none;html=1;rounded=0;strokeWidth=6;strokeColor=#52A1F0;" edge="1" parent="1">
          <mxGeometry width="50" height="50" relative="1" as="geometry">
            <mxPoint x="815" y="1440" as="sourcePoint" />
            <mxPoint x="930" y="1440" as="targetPoint" />
          </mxGeometry>
        </mxCell>
        <mxCell id="6QwXeuThkFD-9IxJBqtr-355" value="" style="endArrow=none;html=1;rounded=0;strokeWidth=6;strokeColor=#52A1F0;" edge="1" parent="1">
          <mxGeometry width="50" height="50" relative="1" as="geometry">
            <mxPoint x="815" y="1679.76" as="sourcePoint" />
            <mxPoint x="930" y="1679.76" as="targetPoint" />
          </mxGeometry>
        </mxCell>
        <mxCell id="6QwXeuThkFD-9IxJBqtr-356" value="" style="endArrow=none;html=1;rounded=0;strokeWidth=6;strokeColor=#52A1F0;" edge="1" parent="1">
          <mxGeometry width="50" height="50" relative="1" as="geometry">
            <mxPoint x="690" y="1680" as="sourcePoint" />
            <mxPoint x="745" y="1680" as="targetPoint" />
          </mxGeometry>
        </mxCell>
        <mxCell id="6QwXeuThkFD-9IxJBqtr-357" value="" style="endArrow=none;html=1;rounded=0;strokeWidth=6;strokeColor=#52A1F0;" edge="1" parent="1">
          <mxGeometry width="50" height="50" relative="1" as="geometry">
            <mxPoint x="690" y="1439.8899999999999" as="sourcePoint" />
            <mxPoint x="745" y="1439.8899999999999" as="targetPoint" />
          </mxGeometry>
        </mxCell>
        <mxCell id="6QwXeuThkFD-9IxJBqtr-358" value="" style="endArrow=none;html=1;rounded=0;strokeWidth=6;strokeColor=#52A1F0;" edge="1" parent="1">
          <mxGeometry width="50" height="50" relative="1" as="geometry">
            <mxPoint x="575" y="1439.7599999999998" as="sourcePoint" />
            <mxPoint x="630" y="1439.7599999999998" as="targetPoint" />
          </mxGeometry>
        </mxCell>
        <mxCell id="6QwXeuThkFD-9IxJBqtr-359" value="" style="endArrow=none;html=1;rounded=0;strokeWidth=6;strokeColor=#52A1F0;" edge="1" parent="1">
          <mxGeometry width="50" height="50" relative="1" as="geometry">
            <mxPoint x="575" y="1679.7599999999998" as="sourcePoint" />
            <mxPoint x="630" y="1679.7599999999998" as="targetPoint" />
          </mxGeometry>
        </mxCell>
        <mxCell id="6QwXeuThkFD-9IxJBqtr-362" value="" style="endArrow=none;html=1;rounded=0;strokeWidth=6;strokeColor=#52A1F0;" edge="1" parent="1">
          <mxGeometry width="50" height="50" relative="1" as="geometry">
            <mxPoint x="1110" y="1439.71" as="sourcePoint" />
            <mxPoint x="1225" y="1439.71" as="targetPoint" />
          </mxGeometry>
        </mxCell>
        <mxCell id="6QwXeuThkFD-9IxJBqtr-363" value="" style="endArrow=none;html=1;rounded=0;strokeWidth=6;strokeColor=#52A1F0;" edge="1" parent="1">
          <mxGeometry width="50" height="50" relative="1" as="geometry">
            <mxPoint x="1110" y="1679.71" as="sourcePoint" />
            <mxPoint x="1225" y="1679.71" as="targetPoint" />
          </mxGeometry>
        </mxCell>
        <mxCell id="6QwXeuThkFD-9IxJBqtr-364" value="" style="endArrow=none;html=1;rounded=0;strokeWidth=6;strokeColor=#52A1F0;" edge="1" parent="1">
          <mxGeometry width="50" height="50" relative="1" as="geometry">
            <mxPoint x="1295" y="1679.86" as="sourcePoint" />
            <mxPoint x="1420" y="1680" as="targetPoint" />
          </mxGeometry>
        </mxCell>
        <mxCell id="6QwXeuThkFD-9IxJBqtr-365" value="" style="endArrow=none;html=1;rounded=0;strokeWidth=6;strokeColor=#52A1F0;" edge="1" parent="1">
          <mxGeometry width="50" height="50" relative="1" as="geometry">
            <mxPoint x="1295" y="1439.86" as="sourcePoint" />
            <mxPoint x="1420" y="1440" as="targetPoint" />
          </mxGeometry>
        </mxCell>
        <mxCell id="6QwXeuThkFD-9IxJBqtr-366" value="" style="endArrow=none;html=1;rounded=0;strokeWidth=6;strokeColor=#52A1F0;" edge="1" parent="1">
          <mxGeometry width="50" height="50" relative="1" as="geometry">
            <mxPoint x="1580" y="1439.5799999999997" as="sourcePoint" />
            <mxPoint x="1690" y="1440" as="targetPoint" />
          </mxGeometry>
        </mxCell>
        <mxCell id="6QwXeuThkFD-9IxJBqtr-367" value="" style="endArrow=none;html=1;rounded=0;strokeWidth=6;strokeColor=#52A1F0;" edge="1" parent="1">
          <mxGeometry width="50" height="50" relative="1" as="geometry">
            <mxPoint x="1580" y="1679.7899999999997" as="sourcePoint" />
            <mxPoint x="1690" y="1680.21" as="targetPoint" />
          </mxGeometry>
        </mxCell>
        <mxCell id="6QwXeuThkFD-9IxJBqtr-368" value="" style="endArrow=none;html=1;rounded=0;strokeWidth=6;strokeColor=#52A1F0;" edge="1" parent="1">
          <mxGeometry width="50" height="50" relative="1" as="geometry">
            <mxPoint x="320" y="2880" as="sourcePoint" />
            <mxPoint x="505" y="2879.7599999999998" as="targetPoint" />
          </mxGeometry>
        </mxCell>
        <mxCell id="6QwXeuThkFD-9IxJBqtr-369" value="" style="endArrow=none;html=1;rounded=0;strokeWidth=6;strokeColor=#52A1F0;" edge="1" parent="1">
          <mxGeometry width="50" height="50" relative="1" as="geometry">
            <mxPoint x="320" y="3120" as="sourcePoint" />
            <mxPoint x="505" y="3119.7599999999998" as="targetPoint" />
          </mxGeometry>
        </mxCell>
        <mxCell id="6QwXeuThkFD-9IxJBqtr-370" value="" style="endArrow=none;html=1;rounded=0;strokeWidth=6;strokeColor=#F2462C;" edge="1" parent="1">
          <mxGeometry width="50" height="50" relative="1" as="geometry">
            <mxPoint x="1590" y="2640" as="sourcePoint" />
            <mxPoint x="1331" y="2640" as="targetPoint" />
          </mxGeometry>
        </mxCell>
        <mxCell id="6QwXeuThkFD-9IxJBqtr-371" value="" style="endArrow=none;html=1;rounded=0;strokeWidth=6;strokeColor=#F2462C;" edge="1" parent="1">
          <mxGeometry width="50" height="50" relative="1" as="geometry">
            <mxPoint x="1573" y="2620" as="sourcePoint" />
            <mxPoint x="1324" y="2620" as="targetPoint" />
          </mxGeometry>
        </mxCell>
        <mxCell id="6QwXeuThkFD-9IxJBqtr-372" value="" style="endArrow=none;html=1;rounded=0;strokeWidth=6;strokeColor=#F2462C;" edge="1" parent="1">
          <mxGeometry width="50" height="50" relative="1" as="geometry">
            <mxPoint x="1542" y="2580" as="sourcePoint" />
            <mxPoint x="1315" y="2580" as="targetPoint" />
          </mxGeometry>
        </mxCell>
        <mxCell id="6QwXeuThkFD-9IxJBqtr-373" value="" style="endArrow=none;html=1;rounded=0;strokeWidth=6;strokeColor=#F2462C;" edge="1" parent="1">
          <mxGeometry width="50" height="50" relative="1" as="geometry">
            <mxPoint x="1558" y="2600" as="sourcePoint" />
            <mxPoint x="1320" y="2600" as="targetPoint" />
          </mxGeometry>
        </mxCell>
        <mxCell id="6QwXeuThkFD-9IxJBqtr-374" value="" style="endArrow=none;html=1;rounded=0;strokeWidth=6;strokeColor=#F2462C;" edge="1" parent="1">
          <mxGeometry width="50" height="50" relative="1" as="geometry">
            <mxPoint x="1527" y="2560" as="sourcePoint" />
            <mxPoint x="1310" y="2560" as="targetPoint" />
          </mxGeometry>
        </mxCell>
        <mxCell id="6QwXeuThkFD-9IxJBqtr-375" value="" style="endArrow=none;html=1;rounded=0;strokeWidth=6;strokeColor=#F2462C;" edge="1" parent="1">
          <mxGeometry width="50" height="50" relative="1" as="geometry">
            <mxPoint x="1514" y="2540" as="sourcePoint" />
            <mxPoint x="1306" y="2540" as="targetPoint" />
          </mxGeometry>
        </mxCell>
        <mxCell id="6QwXeuThkFD-9IxJBqtr-376" value="" style="endArrow=none;html=1;rounded=0;strokeWidth=6;strokeColor=#F2462C;" edge="1" parent="1">
          <mxGeometry width="50" height="50" relative="1" as="geometry">
            <mxPoint x="1500.5" y="2520" as="sourcePoint" />
            <mxPoint x="1299.5" y="2520" as="targetPoint" />
          </mxGeometry>
        </mxCell>
        <mxCell id="6QwXeuThkFD-9IxJBqtr-377" value="" style="endArrow=none;html=1;rounded=0;strokeWidth=6;strokeColor=#F2462C;" edge="1" parent="1">
          <mxGeometry width="50" height="50" relative="1" as="geometry">
            <mxPoint x="1483" y="2500" as="sourcePoint" />
            <mxPoint x="1296" y="2500" as="targetPoint" />
          </mxGeometry>
        </mxCell>
        <mxCell id="6QwXeuThkFD-9IxJBqtr-378" value="" style="endArrow=none;html=1;rounded=0;strokeWidth=6;strokeColor=#F2462C;" edge="1" parent="1">
          <mxGeometry width="50" height="50" relative="1" as="geometry">
            <mxPoint x="1469" y="2480" as="sourcePoint" />
            <mxPoint x="1291" y="2480" as="targetPoint" />
          </mxGeometry>
        </mxCell>
        <mxCell id="6QwXeuThkFD-9IxJBqtr-379" value="" style="endArrow=none;html=1;rounded=0;strokeWidth=6;strokeColor=#F2462C;" edge="1" parent="1">
          <mxGeometry width="50" height="50" relative="1" as="geometry">
            <mxPoint x="1453.5" y="2460" as="sourcePoint" />
            <mxPoint x="1284" y="2460" as="targetPoint" />
          </mxGeometry>
        </mxCell>
        <mxCell id="6QwXeuThkFD-9IxJBqtr-380" value="" style="endArrow=none;html=1;rounded=0;strokeWidth=6;strokeColor=#F2462C;" edge="1" parent="1">
          <mxGeometry width="50" height="50" relative="1" as="geometry">
            <mxPoint x="1590" y="3360" as="sourcePoint" />
            <mxPoint x="1331" y="3360" as="targetPoint" />
          </mxGeometry>
        </mxCell>
        <mxCell id="6QwXeuThkFD-9IxJBqtr-381" value="" style="endArrow=none;html=1;rounded=0;strokeWidth=6;strokeColor=#F2462C;" edge="1" parent="1">
          <mxGeometry width="50" height="50" relative="1" as="geometry">
            <mxPoint x="1543" y="3420" as="sourcePoint" />
            <mxPoint x="1316" y="3420" as="targetPoint" />
          </mxGeometry>
        </mxCell>
        <mxCell id="6QwXeuThkFD-9IxJBqtr-382" value="" style="endArrow=none;html=1;rounded=0;strokeWidth=6;strokeColor=#F2462C;" edge="1" parent="1">
          <mxGeometry width="50" height="50" relative="1" as="geometry">
            <mxPoint x="1574" y="3380" as="sourcePoint" />
            <mxPoint x="1325" y="3380" as="targetPoint" />
          </mxGeometry>
        </mxCell>
        <mxCell id="6QwXeuThkFD-9IxJBqtr-383" value="" style="endArrow=none;html=1;rounded=0;strokeWidth=6;strokeColor=#F2462C;" edge="1" parent="1">
          <mxGeometry width="50" height="50" relative="1" as="geometry">
            <mxPoint x="1514" y="3460" as="sourcePoint" />
            <mxPoint x="1306" y="3460" as="targetPoint" />
          </mxGeometry>
        </mxCell>
        <mxCell id="6QwXeuThkFD-9IxJBqtr-384" value="" style="endArrow=none;html=1;rounded=0;strokeWidth=6;strokeColor=#F2462C;" edge="1" parent="1">
          <mxGeometry width="50" height="50" relative="1" as="geometry">
            <mxPoint x="1456" y="3540" as="sourcePoint" />
            <mxPoint x="1286.5" y="3540" as="targetPoint" />
          </mxGeometry>
        </mxCell>
        <mxCell id="6QwXeuThkFD-9IxJBqtr-385" value="" style="endArrow=none;html=1;rounded=0;strokeWidth=6;strokeColor=#F2462C;" edge="1" parent="1">
          <mxGeometry width="50" height="50" relative="1" as="geometry">
            <mxPoint x="1483" y="3500" as="sourcePoint" />
            <mxPoint x="1296" y="3500" as="targetPoint" />
          </mxGeometry>
        </mxCell>
        <mxCell id="6QwXeuThkFD-9IxJBqtr-386" value="" style="endArrow=none;html=1;rounded=0;strokeWidth=6;strokeColor=#F2462C;" edge="1" parent="1">
          <mxGeometry width="50" height="50" relative="1" as="geometry">
            <mxPoint x="1558" y="3400" as="sourcePoint" />
            <mxPoint x="1320" y="3400" as="targetPoint" />
          </mxGeometry>
        </mxCell>
        <mxCell id="6QwXeuThkFD-9IxJBqtr-387" value="" style="endArrow=none;html=1;rounded=0;strokeWidth=6;strokeColor=#F2462C;" edge="1" parent="1">
          <mxGeometry width="50" height="50" relative="1" as="geometry">
            <mxPoint x="1529" y="3440" as="sourcePoint" />
            <mxPoint x="1312" y="3440" as="targetPoint" />
          </mxGeometry>
        </mxCell>
        <mxCell id="6QwXeuThkFD-9IxJBqtr-388" value="" style="endArrow=none;html=1;rounded=0;strokeWidth=6;strokeColor=#F2462C;" edge="1" parent="1">
          <mxGeometry width="50" height="50" relative="1" as="geometry">
            <mxPoint x="1501" y="3480" as="sourcePoint" />
            <mxPoint x="1300" y="3480" as="targetPoint" />
          </mxGeometry>
        </mxCell>
        <mxCell id="6QwXeuThkFD-9IxJBqtr-389" value="" style="endArrow=none;html=1;rounded=0;strokeWidth=6;strokeColor=#F2462C;" edge="1" parent="1">
          <mxGeometry width="50" height="50" relative="1" as="geometry">
            <mxPoint x="1470" y="3520" as="sourcePoint" />
            <mxPoint x="1292" y="3520" as="targetPoint" />
          </mxGeometry>
        </mxCell>
        <mxCell id="6QwXeuThkFD-9IxJBqtr-390" value="" style="endArrow=none;html=1;rounded=0;strokeWidth=6;strokeColor=#7E3CF0;" edge="1" parent="1">
          <mxGeometry width="50" height="50" relative="1" as="geometry">
            <mxPoint x="1550" y="3080" as="sourcePoint" />
            <mxPoint x="1550" y="3160" as="targetPoint" />
          </mxGeometry>
        </mxCell>
        <mxCell id="6QwXeuThkFD-9IxJBqtr-391" value="" style="endArrow=none;html=1;rounded=0;strokeWidth=6;strokeColor=#7E3CF0;" edge="1" parent="1">
          <mxGeometry width="50" height="50" relative="1" as="geometry">
            <mxPoint x="1570" y="3080" as="sourcePoint" />
            <mxPoint x="1570" y="3160" as="targetPoint" />
          </mxGeometry>
        </mxCell>
        <mxCell id="6QwXeuThkFD-9IxJBqtr-392" value="" style="endArrow=none;html=1;rounded=0;strokeWidth=6;strokeColor=#7E3CF0;" edge="1" parent="1">
          <mxGeometry width="50" height="50" relative="1" as="geometry">
            <mxPoint x="1430" y="3080" as="sourcePoint" />
            <mxPoint x="1430" y="3160" as="targetPoint" />
          </mxGeometry>
        </mxCell>
        <mxCell id="6QwXeuThkFD-9IxJBqtr-393" value="" style="endArrow=none;html=1;rounded=0;strokeWidth=6;strokeColor=#7E3CF0;" edge="1" parent="1">
          <mxGeometry width="50" height="50" relative="1" as="geometry">
            <mxPoint x="1450" y="3080" as="sourcePoint" />
            <mxPoint x="1450" y="3160" as="targetPoint" />
          </mxGeometry>
        </mxCell>
        <mxCell id="6QwXeuThkFD-9IxJBqtr-394" value="" style="endArrow=none;html=1;rounded=0;strokeWidth=6;strokeColor=#7E3CF0;" edge="1" parent="1">
          <mxGeometry width="50" height="50" relative="1" as="geometry">
            <mxPoint x="1430" y="2840" as="sourcePoint" />
            <mxPoint x="1430" y="2920" as="targetPoint" />
          </mxGeometry>
        </mxCell>
        <mxCell id="6QwXeuThkFD-9IxJBqtr-395" value="" style="endArrow=none;html=1;rounded=0;strokeWidth=6;strokeColor=#7E3CF0;" edge="1" parent="1">
          <mxGeometry width="50" height="50" relative="1" as="geometry">
            <mxPoint x="1450" y="2840" as="sourcePoint" />
            <mxPoint x="1450" y="2920" as="targetPoint" />
          </mxGeometry>
        </mxCell>
        <mxCell id="6QwXeuThkFD-9IxJBqtr-396" value="" style="endArrow=none;html=1;rounded=0;strokeWidth=6;strokeColor=#7E3CF0;" edge="1" parent="1">
          <mxGeometry width="50" height="50" relative="1" as="geometry">
            <mxPoint x="1550" y="2840" as="sourcePoint" />
            <mxPoint x="1550" y="2920" as="targetPoint" />
          </mxGeometry>
        </mxCell>
        <mxCell id="6QwXeuThkFD-9IxJBqtr-397" value="" style="endArrow=none;html=1;rounded=0;strokeWidth=6;strokeColor=#7E3CF0;" edge="1" parent="1">
          <mxGeometry width="50" height="50" relative="1" as="geometry">
            <mxPoint x="1570" y="2840" as="sourcePoint" />
            <mxPoint x="1570" y="2920" as="targetPoint" />
          </mxGeometry>
        </mxCell>
        <mxCell id="6QwXeuThkFD-9IxJBqtr-398" value="" style="endArrow=none;html=1;rounded=0;strokeWidth=6;strokeColor=#7E3CF0;" edge="1" parent="1">
          <mxGeometry width="50" height="50" relative="1" as="geometry">
            <mxPoint x="260" y="2950.16" as="sourcePoint" />
            <mxPoint x="460" y="2949.8" as="targetPoint" />
          </mxGeometry>
        </mxCell>
        <mxCell id="6QwXeuThkFD-9IxJBqtr-399" value="" style="endArrow=none;html=1;rounded=0;strokeWidth=6;strokeColor=#7E3CF0;" edge="1" parent="1">
          <mxGeometry width="50" height="50" relative="1" as="geometry">
            <mxPoint x="260" y="2930.16" as="sourcePoint" />
            <mxPoint x="460" y="2929.8" as="targetPoint" />
          </mxGeometry>
        </mxCell>
        <mxCell id="6QwXeuThkFD-9IxJBqtr-400" value="" style="endArrow=none;html=1;rounded=0;strokeWidth=6;strokeColor=#7E3CF0;" edge="1" parent="1">
          <mxGeometry width="50" height="50" relative="1" as="geometry">
            <mxPoint x="260" y="3070.16" as="sourcePoint" />
            <mxPoint x="460" y="3069.8" as="targetPoint" />
          </mxGeometry>
        </mxCell>
        <mxCell id="6QwXeuThkFD-9IxJBqtr-401" value="" style="endArrow=none;html=1;rounded=0;strokeWidth=6;strokeColor=#7E3CF0;" edge="1" parent="1">
          <mxGeometry width="50" height="50" relative="1" as="geometry">
            <mxPoint x="260" y="3050.16" as="sourcePoint" />
            <mxPoint x="460" y="3049.8" as="targetPoint" />
          </mxGeometry>
        </mxCell>
        <mxCell id="6QwXeuThkFD-9IxJBqtr-402" value="" style="endArrow=none;html=1;rounded=0;strokeWidth=6;strokeColor=#7E3CF0;" edge="1" parent="1">
          <mxGeometry width="50" height="50" relative="1" as="geometry">
            <mxPoint x="1580" y="3069.74" as="sourcePoint" />
            <mxPoint x="1660" y="3069.74" as="targetPoint" />
          </mxGeometry>
        </mxCell>
        <mxCell id="6QwXeuThkFD-9IxJBqtr-403" value="" style="endArrow=none;html=1;rounded=0;strokeWidth=6;strokeColor=#7E3CF0;" edge="1" parent="1">
          <mxGeometry width="50" height="50" relative="1" as="geometry">
            <mxPoint x="1580" y="3049.74" as="sourcePoint" />
            <mxPoint x="1660" y="3049.74" as="targetPoint" />
          </mxGeometry>
        </mxCell>
        <mxCell id="6QwXeuThkFD-9IxJBqtr-404" value="" style="endArrow=none;html=1;rounded=0;strokeWidth=6;strokeColor=#7E3CF0;" edge="1" parent="1">
          <mxGeometry width="50" height="50" relative="1" as="geometry">
            <mxPoint x="1580" y="2929.74" as="sourcePoint" />
            <mxPoint x="1660" y="2929.74" as="targetPoint" />
          </mxGeometry>
        </mxCell>
        <mxCell id="6QwXeuThkFD-9IxJBqtr-405" value="" style="endArrow=none;html=1;rounded=0;strokeWidth=6;strokeColor=#7E3CF0;" edge="1" parent="1">
          <mxGeometry width="50" height="50" relative="1" as="geometry">
            <mxPoint x="1580" y="2949.74" as="sourcePoint" />
            <mxPoint x="1660" y="2949.74" as="targetPoint" />
          </mxGeometry>
        </mxCell>
        <mxCell id="6QwXeuThkFD-9IxJBqtr-406" value="" style="endArrow=none;html=1;rounded=0;strokeWidth=6;strokeColor=#7E3CF0;" edge="1" parent="1">
          <mxGeometry width="50" height="50" relative="1" as="geometry">
            <mxPoint x="1340" y="3070" as="sourcePoint" />
            <mxPoint x="1420" y="3070" as="targetPoint" />
          </mxGeometry>
        </mxCell>
        <mxCell id="6QwXeuThkFD-9IxJBqtr-407" value="" style="endArrow=none;html=1;rounded=0;strokeWidth=6;strokeColor=#7E3CF0;" edge="1" parent="1">
          <mxGeometry width="50" height="50" relative="1" as="geometry">
            <mxPoint x="1340" y="3050" as="sourcePoint" />
            <mxPoint x="1420" y="3050" as="targetPoint" />
          </mxGeometry>
        </mxCell>
        <mxCell id="6QwXeuThkFD-9IxJBqtr-408" value="" style="endArrow=none;html=1;rounded=0;strokeWidth=6;strokeColor=#7E3CF0;" edge="1" parent="1">
          <mxGeometry width="50" height="50" relative="1" as="geometry">
            <mxPoint x="1340" y="2950" as="sourcePoint" />
            <mxPoint x="1420" y="2950" as="targetPoint" />
          </mxGeometry>
        </mxCell>
        <mxCell id="6QwXeuThkFD-9IxJBqtr-409" value="" style="endArrow=none;html=1;rounded=0;strokeWidth=6;strokeColor=#7E3CF0;" edge="1" parent="1">
          <mxGeometry width="50" height="50" relative="1" as="geometry">
            <mxPoint x="1340" y="2930" as="sourcePoint" />
            <mxPoint x="1420" y="2930" as="targetPoint" />
          </mxGeometry>
        </mxCell>
        <mxCell id="6QwXeuThkFD-9IxJBqtr-410" value="" style="endArrow=none;html=1;rounded=0;strokeWidth=6;strokeColor=#7E3CF0;" edge="1" parent="1">
          <mxGeometry width="50" height="50" relative="1" as="geometry">
            <mxPoint x="860" y="3070" as="sourcePoint" />
            <mxPoint x="940" y="3070" as="targetPoint" />
          </mxGeometry>
        </mxCell>
        <mxCell id="6QwXeuThkFD-9IxJBqtr-411" value="" style="endArrow=none;html=1;rounded=0;strokeWidth=6;strokeColor=#7E3CF0;" edge="1" parent="1">
          <mxGeometry width="50" height="50" relative="1" as="geometry">
            <mxPoint x="860" y="3050" as="sourcePoint" />
            <mxPoint x="940" y="3050" as="targetPoint" />
          </mxGeometry>
        </mxCell>
        <mxCell id="6QwXeuThkFD-9IxJBqtr-412" value="" style="endArrow=none;html=1;rounded=0;strokeWidth=6;strokeColor=#7E3CF0;" edge="1" parent="1">
          <mxGeometry width="50" height="50" relative="1" as="geometry">
            <mxPoint x="860" y="2930" as="sourcePoint" />
            <mxPoint x="940" y="2930" as="targetPoint" />
          </mxGeometry>
        </mxCell>
        <mxCell id="6QwXeuThkFD-9IxJBqtr-413" value="" style="endArrow=none;html=1;rounded=0;strokeWidth=6;strokeColor=#7E3CF0;" edge="1" parent="1">
          <mxGeometry width="50" height="50" relative="1" as="geometry">
            <mxPoint x="860" y="2950" as="sourcePoint" />
            <mxPoint x="940" y="2950" as="targetPoint" />
          </mxGeometry>
        </mxCell>
        <mxCell id="6QwXeuThkFD-9IxJBqtr-414" value="" style="endArrow=none;html=1;rounded=0;strokeWidth=6;strokeColor=#7E3CF0;" edge="1" parent="1">
          <mxGeometry width="50" height="50" relative="1" as="geometry">
            <mxPoint x="1100" y="3050" as="sourcePoint" />
            <mxPoint x="1180" y="3050" as="targetPoint" />
          </mxGeometry>
        </mxCell>
        <mxCell id="6QwXeuThkFD-9IxJBqtr-415" value="" style="endArrow=none;html=1;rounded=0;strokeWidth=6;strokeColor=#7E3CF0;" edge="1" parent="1">
          <mxGeometry width="50" height="50" relative="1" as="geometry">
            <mxPoint x="1100" y="3070" as="sourcePoint" />
            <mxPoint x="1180" y="3070" as="targetPoint" />
          </mxGeometry>
        </mxCell>
        <mxCell id="6QwXeuThkFD-9IxJBqtr-416" value="" style="endArrow=none;html=1;rounded=0;strokeWidth=6;strokeColor=#7E3CF0;" edge="1" parent="1">
          <mxGeometry width="50" height="50" relative="1" as="geometry">
            <mxPoint x="1100" y="2930" as="sourcePoint" />
            <mxPoint x="1180" y="2930" as="targetPoint" />
          </mxGeometry>
        </mxCell>
        <mxCell id="6QwXeuThkFD-9IxJBqtr-417" value="" style="endArrow=none;html=1;rounded=0;strokeWidth=6;strokeColor=#7E3CF0;" edge="1" parent="1">
          <mxGeometry width="50" height="50" relative="1" as="geometry">
            <mxPoint x="1100" y="2950" as="sourcePoint" />
            <mxPoint x="1180" y="2950" as="targetPoint" />
          </mxGeometry>
        </mxCell>
        <mxCell id="6QwXeuThkFD-9IxJBqtr-418" value="" style="endArrow=none;html=1;rounded=0;strokeWidth=6;strokeColor=#FFFFFF;" edge="1" parent="1">
          <mxGeometry width="50" height="50" relative="1" as="geometry">
            <mxPoint x="1660" y="3020" as="sourcePoint" />
            <mxPoint x="1660" y="3020" as="targetPoint" />
            <Array as="points">
              <mxPoint x="1660" y="3080" />
              <mxPoint x="1700" y="3110" />
              <mxPoint x="1700" y="3210" />
              <mxPoint x="1410" y="3600" />
              <mxPoint x="1270" y="3600" />
              <mxPoint x="1370" y="3200" />
              <mxPoint x="1200" y="3200" />
              <mxPoint x="1140" y="3240" />
              <mxPoint x="920" y="3240" />
              <mxPoint x="840" y="3200" />
              <mxPoint x="770" y="3200" />
              <mxPoint x="700" y="3200" />
              <mxPoint x="620" y="3200" />
              <mxPoint x="580" y="3160" />
              <mxPoint x="380" y="3160" />
              <mxPoint x="260" y="3080" />
              <mxPoint x="260" y="2920" />
              <mxPoint x="380" y="2840" />
              <mxPoint x="580" y="2840" />
              <mxPoint x="620" y="2800" />
              <mxPoint x="700" y="2800" />
              <mxPoint x="840" y="2800" />
              <mxPoint x="900" y="2760" />
              <mxPoint x="1140" y="2760" />
              <mxPoint x="1200" y="2800" />
              <mxPoint x="1370" y="2800" />
              <mxPoint x="1270" y="2400" />
              <mxPoint x="1410" y="2400" />
              <mxPoint x="1700" y="2790" />
              <mxPoint x="1700" y="2890" />
              <mxPoint x="1660" y="2920" />
            </Array>
          </mxGeometry>
        </mxCell>
        <mxCell id="6QwXeuThkFD-9IxJBqtr-419" value="" style="rounded=0;whiteSpace=wrap;html=1;strokeColor=#C2C2C2;fillColor=none;strokeWidth=8;" vertex="1" parent="1">
          <mxGeometry x="700" y="2920" width="160" height="160" as="geometry" />
        </mxCell>
        <mxCell id="6QwXeuThkFD-9IxJBqtr-420" value="" style="rounded=0;whiteSpace=wrap;html=1;strokeColor=#C2C2C2;fillColor=none;strokeWidth=8;" vertex="1" parent="1">
          <mxGeometry x="1180" y="2920" width="160" height="160" as="geometry" />
        </mxCell>
        <mxCell id="6QwXeuThkFD-9IxJBqtr-421" value="" style="rounded=0;whiteSpace=wrap;html=1;strokeColor=#C2C2C2;fillColor=none;strokeWidth=8;" vertex="1" parent="1">
          <mxGeometry x="940" y="2810" width="160" height="160" as="geometry" />
        </mxCell>
        <mxCell id="6QwXeuThkFD-9IxJBqtr-422" value="" style="rounded=0;whiteSpace=wrap;html=1;strokeColor=#C2C2C2;fillColor=none;strokeWidth=8;" vertex="1" parent="1">
          <mxGeometry x="940" y="3030" width="160" height="160" as="geometry" />
        </mxCell>
        <mxCell id="6QwXeuThkFD-9IxJBqtr-423" value="" style="rounded=0;whiteSpace=wrap;html=1;strokeColor=#C2C2C2;fillColor=none;strokeWidth=8;" vertex="1" parent="1">
          <mxGeometry x="1420" y="2920" width="160" height="160" as="geometry" />
        </mxCell>
        <mxCell id="6QwXeuThkFD-9IxJBqtr-424" value="" style="endArrow=none;html=1;rounded=0;strokeWidth=6;strokeColor=#62BCF0;" edge="1" parent="1">
          <mxGeometry width="50" height="50" relative="1" as="geometry">
            <mxPoint x="950" y="3020" as="sourcePoint" />
            <mxPoint x="950" y="2980" as="targetPoint" />
          </mxGeometry>
        </mxCell>
        <mxCell id="6QwXeuThkFD-9IxJBqtr-425" value="" style="endArrow=none;html=1;rounded=0;strokeWidth=6;strokeColor=#62BCF0;" edge="1" parent="1">
          <mxGeometry width="50" height="50" relative="1" as="geometry">
            <mxPoint x="970" y="3020" as="sourcePoint" />
            <mxPoint x="970" y="2980" as="targetPoint" />
          </mxGeometry>
        </mxCell>
        <mxCell id="6QwXeuThkFD-9IxJBqtr-426" value="" style="endArrow=none;html=1;rounded=0;strokeWidth=6;strokeColor=#62BCF0;" edge="1" parent="1">
          <mxGeometry width="50" height="50" relative="1" as="geometry">
            <mxPoint x="1090" y="3020" as="sourcePoint" />
            <mxPoint x="1090" y="2980" as="targetPoint" />
          </mxGeometry>
        </mxCell>
        <mxCell id="6QwXeuThkFD-9IxJBqtr-427" value="" style="endArrow=none;html=1;rounded=0;strokeWidth=6;strokeColor=#62BCF0;" edge="1" parent="1">
          <mxGeometry width="50" height="50" relative="1" as="geometry">
            <mxPoint x="1070" y="3020" as="sourcePoint" />
            <mxPoint x="1070" y="2980" as="targetPoint" />
          </mxGeometry>
        </mxCell>
        <mxCell id="6QwXeuThkFD-9IxJBqtr-428" value="" style="endArrow=none;html=1;rounded=0;strokeWidth=6;strokeColor=#62BCF0;" edge="1" parent="1">
          <mxGeometry width="50" height="50" relative="1" as="geometry">
            <mxPoint x="1030" y="3020" as="sourcePoint" />
            <mxPoint x="1030" y="2980" as="targetPoint" />
          </mxGeometry>
        </mxCell>
        <mxCell id="6QwXeuThkFD-9IxJBqtr-429" value="" style="endArrow=none;html=1;rounded=0;strokeWidth=6;strokeColor=#62BCF0;" edge="1" parent="1">
          <mxGeometry width="50" height="50" relative="1" as="geometry">
            <mxPoint x="1010" y="3020" as="sourcePoint" />
            <mxPoint x="1010" y="2980" as="targetPoint" />
          </mxGeometry>
        </mxCell>
        <mxCell id="6QwXeuThkFD-9IxJBqtr-430" value="" style="ellipse;whiteSpace=wrap;html=1;fillColor=none;strokeWidth=6;strokeColor=#B6F0EA;" vertex="1" parent="1">
          <mxGeometry x="870" y="2970" width="60" height="60" as="geometry" />
        </mxCell>
        <mxCell id="6QwXeuThkFD-9IxJBqtr-431" value="" style="ellipse;whiteSpace=wrap;html=1;fillColor=none;strokeWidth=6;strokeColor=#B6F0EA;" vertex="1" parent="1">
          <mxGeometry x="1110" y="2970" width="60" height="60" as="geometry" />
        </mxCell>
        <mxCell id="6QwXeuThkFD-9IxJBqtr-432" value="" style="ellipse;whiteSpace=wrap;html=1;fillColor=none;strokeWidth=6;strokeColor=#B6F0EA;" vertex="1" parent="1">
          <mxGeometry x="1350" y="2970" width="60" height="60" as="geometry" />
        </mxCell>
        <mxCell id="6QwXeuThkFD-9IxJBqtr-433" value="" style="endArrow=none;html=1;rounded=0;strokeWidth=6;strokeColor=#F08A24;" edge="1" parent="1">
          <mxGeometry width="50" height="50" relative="1" as="geometry">
            <mxPoint x="1235" y="3145" as="sourcePoint" />
            <mxPoint x="1235" y="3095" as="targetPoint" />
          </mxGeometry>
        </mxCell>
        <mxCell id="6QwXeuThkFD-9IxJBqtr-434" value="" style="endArrow=none;html=1;rounded=0;strokeWidth=6;strokeColor=#F08A24;" edge="1" parent="1">
          <mxGeometry width="50" height="50" relative="1" as="geometry">
            <mxPoint x="1250" y="3145" as="sourcePoint" />
            <mxPoint x="1250" y="3095" as="targetPoint" />
          </mxGeometry>
        </mxCell>
        <mxCell id="6QwXeuThkFD-9IxJBqtr-435" value="" style="endArrow=none;html=1;rounded=0;strokeWidth=6;strokeColor=#F08A24;" edge="1" parent="1">
          <mxGeometry width="50" height="50" relative="1" as="geometry">
            <mxPoint x="1285" y="3145" as="sourcePoint" />
            <mxPoint x="1285" y="3095" as="targetPoint" />
          </mxGeometry>
        </mxCell>
        <mxCell id="6QwXeuThkFD-9IxJBqtr-436" value="" style="endArrow=none;html=1;rounded=0;strokeWidth=6;strokeColor=#F08A24;" edge="1" parent="1">
          <mxGeometry width="50" height="50" relative="1" as="geometry">
            <mxPoint x="1270" y="3145" as="sourcePoint" />
            <mxPoint x="1270" y="3095" as="targetPoint" />
          </mxGeometry>
        </mxCell>
        <mxCell id="6QwXeuThkFD-9IxJBqtr-437" value="" style="endArrow=none;html=1;rounded=0;strokeWidth=6;strokeColor=#F08A24;" edge="1" parent="1">
          <mxGeometry width="50" height="50" relative="1" as="geometry">
            <mxPoint x="1234.71" y="2905" as="sourcePoint" />
            <mxPoint x="1234.71" y="2855" as="targetPoint" />
          </mxGeometry>
        </mxCell>
        <mxCell id="6QwXeuThkFD-9IxJBqtr-438" value="" style="endArrow=none;html=1;rounded=0;strokeWidth=6;strokeColor=#F08A24;" edge="1" parent="1">
          <mxGeometry width="50" height="50" relative="1" as="geometry">
            <mxPoint x="1249.71" y="2905" as="sourcePoint" />
            <mxPoint x="1249.71" y="2855" as="targetPoint" />
          </mxGeometry>
        </mxCell>
        <mxCell id="6QwXeuThkFD-9IxJBqtr-439" value="" style="endArrow=none;html=1;rounded=0;strokeWidth=6;strokeColor=#F08A24;" edge="1" parent="1">
          <mxGeometry width="50" height="50" relative="1" as="geometry">
            <mxPoint x="1284.71" y="2905" as="sourcePoint" />
            <mxPoint x="1284.71" y="2855" as="targetPoint" />
          </mxGeometry>
        </mxCell>
        <mxCell id="6QwXeuThkFD-9IxJBqtr-440" value="" style="endArrow=none;html=1;rounded=0;strokeWidth=6;strokeColor=#F08A24;" edge="1" parent="1">
          <mxGeometry width="50" height="50" relative="1" as="geometry">
            <mxPoint x="1269.71" y="2905" as="sourcePoint" />
            <mxPoint x="1269.71" y="2855" as="targetPoint" />
          </mxGeometry>
        </mxCell>
        <mxCell id="6QwXeuThkFD-9IxJBqtr-441" value="" style="endArrow=none;html=1;rounded=0;strokeWidth=6;strokeColor=#F08A24;" edge="1" parent="1">
          <mxGeometry width="50" height="50" relative="1" as="geometry">
            <mxPoint x="754.86" y="3145" as="sourcePoint" />
            <mxPoint x="754.86" y="3095" as="targetPoint" />
          </mxGeometry>
        </mxCell>
        <mxCell id="6QwXeuThkFD-9IxJBqtr-442" value="" style="endArrow=none;html=1;rounded=0;strokeWidth=6;strokeColor=#F08A24;" edge="1" parent="1">
          <mxGeometry width="50" height="50" relative="1" as="geometry">
            <mxPoint x="769.86" y="3145" as="sourcePoint" />
            <mxPoint x="769.86" y="3095" as="targetPoint" />
          </mxGeometry>
        </mxCell>
        <mxCell id="6QwXeuThkFD-9IxJBqtr-443" value="" style="endArrow=none;html=1;rounded=0;strokeWidth=6;strokeColor=#F08A24;" edge="1" parent="1">
          <mxGeometry width="50" height="50" relative="1" as="geometry">
            <mxPoint x="804.86" y="3145" as="sourcePoint" />
            <mxPoint x="804.86" y="3095" as="targetPoint" />
          </mxGeometry>
        </mxCell>
        <mxCell id="6QwXeuThkFD-9IxJBqtr-444" value="" style="endArrow=none;html=1;rounded=0;strokeWidth=6;strokeColor=#F08A24;" edge="1" parent="1">
          <mxGeometry width="50" height="50" relative="1" as="geometry">
            <mxPoint x="789.86" y="3145" as="sourcePoint" />
            <mxPoint x="789.86" y="3095" as="targetPoint" />
          </mxGeometry>
        </mxCell>
        <mxCell id="6QwXeuThkFD-9IxJBqtr-445" value="" style="endArrow=none;html=1;rounded=0;strokeWidth=6;strokeColor=#F08A24;" edge="1" parent="1">
          <mxGeometry width="50" height="50" relative="1" as="geometry">
            <mxPoint x="754.57" y="2905" as="sourcePoint" />
            <mxPoint x="754.57" y="2855" as="targetPoint" />
          </mxGeometry>
        </mxCell>
        <mxCell id="6QwXeuThkFD-9IxJBqtr-446" value="" style="endArrow=none;html=1;rounded=0;strokeWidth=6;strokeColor=#F08A24;" edge="1" parent="1">
          <mxGeometry width="50" height="50" relative="1" as="geometry">
            <mxPoint x="769.57" y="2905" as="sourcePoint" />
            <mxPoint x="769.57" y="2855" as="targetPoint" />
          </mxGeometry>
        </mxCell>
        <mxCell id="6QwXeuThkFD-9IxJBqtr-447" value="" style="endArrow=none;html=1;rounded=0;strokeWidth=6;strokeColor=#F08A24;" edge="1" parent="1">
          <mxGeometry width="50" height="50" relative="1" as="geometry">
            <mxPoint x="804.57" y="2905" as="sourcePoint" />
            <mxPoint x="804.57" y="2855" as="targetPoint" />
          </mxGeometry>
        </mxCell>
        <mxCell id="6QwXeuThkFD-9IxJBqtr-448" value="" style="endArrow=none;html=1;rounded=0;strokeWidth=6;strokeColor=#F08A24;" edge="1" parent="1">
          <mxGeometry width="50" height="50" relative="1" as="geometry">
            <mxPoint x="789.57" y="2905" as="sourcePoint" />
            <mxPoint x="789.57" y="2855" as="targetPoint" />
          </mxGeometry>
        </mxCell>
        <mxCell id="6QwXeuThkFD-9IxJBqtr-449" value="" style="ellipse;whiteSpace=wrap;html=1;fillColor=none;strokeWidth=6;strokeColor=#B6F0EA;" vertex="1" parent="1">
          <mxGeometry x="1590" y="2970" width="60" height="60" as="geometry" />
        </mxCell>
        <mxCell id="6QwXeuThkFD-9IxJBqtr-450" value="" style="ellipse;whiteSpace=wrap;html=1;fillColor=none;strokeWidth=6;strokeColor=#B6F0EA;" vertex="1" parent="1">
          <mxGeometry x="390" y="2969.8" width="60" height="60" as="geometry" />
        </mxCell>
        <mxCell id="6QwXeuThkFD-9IxJBqtr-451" value="" style="endArrow=none;html=1;rounded=0;strokeWidth=6;strokeColor=#5D5C5E;" edge="1" parent="1">
          <mxGeometry width="50" height="50" relative="1" as="geometry">
            <mxPoint x="270" y="3000.16" as="sourcePoint" />
            <mxPoint x="380" y="2999.96" as="targetPoint" />
          </mxGeometry>
        </mxCell>
        <mxCell id="6QwXeuThkFD-9IxJBqtr-452" value="" style="endArrow=none;html=1;rounded=0;strokeWidth=6;strokeColor=#7E3CF0;" edge="1" parent="1">
          <mxGeometry width="50" height="50" relative="1" as="geometry">
            <mxPoint x="620" y="3069.8" as="sourcePoint" />
            <mxPoint x="700" y="3069.8" as="targetPoint" />
          </mxGeometry>
        </mxCell>
        <mxCell id="6QwXeuThkFD-9IxJBqtr-453" value="" style="endArrow=none;html=1;rounded=0;strokeWidth=6;strokeColor=#7E3CF0;" edge="1" parent="1">
          <mxGeometry width="50" height="50" relative="1" as="geometry">
            <mxPoint x="620" y="3049.8" as="sourcePoint" />
            <mxPoint x="700" y="3049.8" as="targetPoint" />
          </mxGeometry>
        </mxCell>
        <mxCell id="6QwXeuThkFD-9IxJBqtr-454" value="" style="endArrow=none;html=1;rounded=0;strokeWidth=6;strokeColor=#7E3CF0;" edge="1" parent="1">
          <mxGeometry width="50" height="50" relative="1" as="geometry">
            <mxPoint x="620" y="2929.8" as="sourcePoint" />
            <mxPoint x="700" y="2929.8" as="targetPoint" />
          </mxGeometry>
        </mxCell>
        <mxCell id="6QwXeuThkFD-9IxJBqtr-455" value="" style="endArrow=none;html=1;rounded=0;strokeWidth=6;strokeColor=#7E3CF0;" edge="1" parent="1">
          <mxGeometry width="50" height="50" relative="1" as="geometry">
            <mxPoint x="620" y="2949.8" as="sourcePoint" />
            <mxPoint x="700" y="2949.8" as="targetPoint" />
          </mxGeometry>
        </mxCell>
        <mxCell id="6QwXeuThkFD-9IxJBqtr-456" value="" style="ellipse;whiteSpace=wrap;html=1;fillColor=none;strokeWidth=6;strokeColor=#B6F0EA;" vertex="1" parent="1">
          <mxGeometry x="630" y="2969.8" width="60" height="60" as="geometry" />
        </mxCell>
        <mxCell id="6QwXeuThkFD-9IxJBqtr-457" value="" style="rounded=0;whiteSpace=wrap;html=1;strokeColor=#C2C2C2;fillColor=none;strokeWidth=8;" vertex="1" parent="1">
          <mxGeometry x="460" y="2919.58" width="160" height="160" as="geometry" />
        </mxCell>
        <mxCell id="6QwXeuThkFD-9IxJBqtr-458" value="" style="endArrow=none;html=1;rounded=0;strokeWidth=6;strokeColor=#F08A24;" edge="1" parent="1">
          <mxGeometry width="50" height="50" relative="1" as="geometry">
            <mxPoint x="514.81" y="3145" as="sourcePoint" />
            <mxPoint x="514.81" y="3095" as="targetPoint" />
          </mxGeometry>
        </mxCell>
        <mxCell id="6QwXeuThkFD-9IxJBqtr-459" value="" style="endArrow=none;html=1;rounded=0;strokeWidth=6;strokeColor=#F08A24;" edge="1" parent="1">
          <mxGeometry width="50" height="50" relative="1" as="geometry">
            <mxPoint x="529.81" y="3145" as="sourcePoint" />
            <mxPoint x="529.81" y="3095" as="targetPoint" />
          </mxGeometry>
        </mxCell>
        <mxCell id="6QwXeuThkFD-9IxJBqtr-460" value="" style="endArrow=none;html=1;rounded=0;strokeWidth=6;strokeColor=#F08A24;" edge="1" parent="1">
          <mxGeometry width="50" height="50" relative="1" as="geometry">
            <mxPoint x="564.81" y="3145" as="sourcePoint" />
            <mxPoint x="564.81" y="3095" as="targetPoint" />
          </mxGeometry>
        </mxCell>
        <mxCell id="6QwXeuThkFD-9IxJBqtr-461" value="" style="endArrow=none;html=1;rounded=0;strokeWidth=6;strokeColor=#F08A24;" edge="1" parent="1">
          <mxGeometry width="50" height="50" relative="1" as="geometry">
            <mxPoint x="549.81" y="3145" as="sourcePoint" />
            <mxPoint x="549.81" y="3095" as="targetPoint" />
          </mxGeometry>
        </mxCell>
        <mxCell id="6QwXeuThkFD-9IxJBqtr-462" value="" style="endArrow=none;html=1;rounded=0;strokeWidth=6;strokeColor=#F08A24;" edge="1" parent="1">
          <mxGeometry width="50" height="50" relative="1" as="geometry">
            <mxPoint x="514.52" y="2905" as="sourcePoint" />
            <mxPoint x="514.52" y="2855" as="targetPoint" />
          </mxGeometry>
        </mxCell>
        <mxCell id="6QwXeuThkFD-9IxJBqtr-463" value="" style="endArrow=none;html=1;rounded=0;strokeWidth=6;strokeColor=#F08A24;" edge="1" parent="1">
          <mxGeometry width="50" height="50" relative="1" as="geometry">
            <mxPoint x="529.52" y="2905" as="sourcePoint" />
            <mxPoint x="529.52" y="2855" as="targetPoint" />
          </mxGeometry>
        </mxCell>
        <mxCell id="6QwXeuThkFD-9IxJBqtr-464" value="" style="endArrow=none;html=1;rounded=0;strokeWidth=6;strokeColor=#F08A24;" edge="1" parent="1">
          <mxGeometry width="50" height="50" relative="1" as="geometry">
            <mxPoint x="564.52" y="2905" as="sourcePoint" />
            <mxPoint x="564.52" y="2855" as="targetPoint" />
          </mxGeometry>
        </mxCell>
        <mxCell id="6QwXeuThkFD-9IxJBqtr-465" value="" style="endArrow=none;html=1;rounded=0;strokeWidth=6;strokeColor=#F08A24;" edge="1" parent="1">
          <mxGeometry width="50" height="50" relative="1" as="geometry">
            <mxPoint x="549.52" y="2905" as="sourcePoint" />
            <mxPoint x="549.52" y="2855" as="targetPoint" />
          </mxGeometry>
        </mxCell>
        <mxCell id="6QwXeuThkFD-9IxJBqtr-466" value="" style="endArrow=none;html=1;rounded=0;strokeWidth=6;strokeColor=#5D5C5E;" edge="1" parent="1">
          <mxGeometry width="50" height="50" relative="1" as="geometry">
            <mxPoint x="640" y="3180" as="sourcePoint" />
            <mxPoint x="640" y="3090" as="targetPoint" />
          </mxGeometry>
        </mxCell>
        <mxCell id="6QwXeuThkFD-9IxJBqtr-467" value="" style="endArrow=none;html=1;rounded=0;strokeWidth=6;strokeColor=#5D5C5E;" edge="1" parent="1">
          <mxGeometry width="50" height="50" relative="1" as="geometry">
            <mxPoint x="659.7" y="3180" as="sourcePoint" />
            <mxPoint x="659.7" y="3090" as="targetPoint" />
          </mxGeometry>
        </mxCell>
        <mxCell id="6QwXeuThkFD-9IxJBqtr-468" value="" style="endArrow=none;html=1;rounded=0;strokeWidth=6;strokeColor=#5D5C5E;" edge="1" parent="1">
          <mxGeometry width="50" height="50" relative="1" as="geometry">
            <mxPoint x="639.78" y="2910" as="sourcePoint" />
            <mxPoint x="639.78" y="2820" as="targetPoint" />
          </mxGeometry>
        </mxCell>
        <mxCell id="6QwXeuThkFD-9IxJBqtr-469" value="" style="endArrow=none;html=1;rounded=0;strokeWidth=6;strokeColor=#5D5C5E;" edge="1" parent="1">
          <mxGeometry width="50" height="50" relative="1" as="geometry">
            <mxPoint x="679.78" y="2910" as="sourcePoint" />
            <mxPoint x="679.78" y="2820" as="targetPoint" />
          </mxGeometry>
        </mxCell>
        <mxCell id="6QwXeuThkFD-9IxJBqtr-470" value="" style="endArrow=none;html=1;rounded=0;strokeWidth=6;strokeColor=#5D5C5E;" edge="1" parent="1">
          <mxGeometry width="50" height="50" relative="1" as="geometry">
            <mxPoint x="680" y="3180" as="sourcePoint" />
            <mxPoint x="680" y="3090" as="targetPoint" />
          </mxGeometry>
        </mxCell>
        <mxCell id="6QwXeuThkFD-9IxJBqtr-471" value="" style="endArrow=none;html=1;rounded=0;strokeWidth=6;strokeColor=#5D5C5E;" edge="1" parent="1">
          <mxGeometry width="50" height="50" relative="1" as="geometry">
            <mxPoint x="659.7" y="2910" as="sourcePoint" />
            <mxPoint x="659.7" y="2820" as="targetPoint" />
          </mxGeometry>
        </mxCell>
        <mxCell id="6QwXeuThkFD-9IxJBqtr-472" value="" style="rounded=0;whiteSpace=wrap;html=1;strokeColor=#C2C2C2;fillColor=none;strokeWidth=8;" vertex="1" parent="1">
          <mxGeometry x="1420" y="3160" width="160" height="160" as="geometry" />
        </mxCell>
        <mxCell id="6QwXeuThkFD-9IxJBqtr-473" value="" style="ellipse;whiteSpace=wrap;html=1;fillColor=none;strokeWidth=6;strokeColor=#B6F0EA;" vertex="1" parent="1">
          <mxGeometry x="1470" y="2850" width="60" height="60" as="geometry" />
        </mxCell>
        <mxCell id="6QwXeuThkFD-9IxJBqtr-474" value="" style="ellipse;whiteSpace=wrap;html=1;fillColor=none;strokeWidth=6;strokeColor=#B6F0EA;" vertex="1" parent="1">
          <mxGeometry x="1470" y="3090" width="60" height="60" as="geometry" />
        </mxCell>
        <mxCell id="6QwXeuThkFD-9IxJBqtr-475" value="" style="rounded=0;whiteSpace=wrap;html=1;strokeColor=#C2C2C2;fillColor=none;strokeWidth=8;" vertex="1" parent="1">
          <mxGeometry x="1420" y="2680" width="160" height="160" as="geometry" />
        </mxCell>
        <mxCell id="6QwXeuThkFD-9IxJBqtr-477" value="" style="endArrow=none;html=1;rounded=0;strokeWidth=6;strokeColor=#5D5C5E;" edge="1" parent="1">
          <mxGeometry width="50" height="50" relative="1" as="geometry">
            <mxPoint x="1690" y="2820.35" as="sourcePoint" />
            <mxPoint x="1590" y="2819.65" as="targetPoint" />
          </mxGeometry>
        </mxCell>
        <mxCell id="6QwXeuThkFD-9IxJBqtr-478" value="" style="endArrow=none;html=1;rounded=0;strokeWidth=6;strokeColor=#5D5C5E;" edge="1" parent="1">
          <mxGeometry width="50" height="50" relative="1" as="geometry">
            <mxPoint x="1690" y="3180.11" as="sourcePoint" />
            <mxPoint x="1590" y="3179.76" as="targetPoint" />
          </mxGeometry>
        </mxCell>
        <mxCell id="6QwXeuThkFD-9IxJBqtr-480" value="" style="endArrow=none;html=1;rounded=0;strokeWidth=6;strokeColor=#FFFFFF;" edge="1" parent="1">
          <mxGeometry width="50" height="50" relative="1" as="geometry">
            <mxPoint x="1603" y="3340" as="sourcePoint" />
            <mxPoint x="1335" y="3340" as="targetPoint" />
          </mxGeometry>
        </mxCell>
        <mxCell id="6QwXeuThkFD-9IxJBqtr-481" value="" style="endArrow=none;html=1;rounded=0;strokeWidth=6;strokeColor=#FFFFFF;" edge="1" parent="1">
          <mxGeometry width="50" height="50" relative="1" as="geometry">
            <mxPoint x="1604" y="2660" as="sourcePoint" />
            <mxPoint x="1336" y="2660" as="targetPoint" />
          </mxGeometry>
        </mxCell>
        <mxCell id="6QwXeuThkFD-9IxJBqtr-482" value="" style="endArrow=none;html=1;rounded=0;strokeWidth=6;strokeColor=#52A1F0;" edge="1" parent="1">
          <mxGeometry width="50" height="50" relative="1" as="geometry">
            <mxPoint x="815" y="2880" as="sourcePoint" />
            <mxPoint x="930" y="2880" as="targetPoint" />
          </mxGeometry>
        </mxCell>
        <mxCell id="6QwXeuThkFD-9IxJBqtr-483" value="" style="endArrow=none;html=1;rounded=0;strokeWidth=6;strokeColor=#52A1F0;" edge="1" parent="1">
          <mxGeometry width="50" height="50" relative="1" as="geometry">
            <mxPoint x="815" y="3119.76" as="sourcePoint" />
            <mxPoint x="930" y="3119.76" as="targetPoint" />
          </mxGeometry>
        </mxCell>
        <mxCell id="6QwXeuThkFD-9IxJBqtr-484" value="" style="endArrow=none;html=1;rounded=0;strokeWidth=6;strokeColor=#52A1F0;" edge="1" parent="1">
          <mxGeometry width="50" height="50" relative="1" as="geometry">
            <mxPoint x="690" y="3120" as="sourcePoint" />
            <mxPoint x="745" y="3120" as="targetPoint" />
          </mxGeometry>
        </mxCell>
        <mxCell id="6QwXeuThkFD-9IxJBqtr-485" value="" style="endArrow=none;html=1;rounded=0;strokeWidth=6;strokeColor=#52A1F0;" edge="1" parent="1">
          <mxGeometry width="50" height="50" relative="1" as="geometry">
            <mxPoint x="690" y="2879.89" as="sourcePoint" />
            <mxPoint x="745" y="2879.89" as="targetPoint" />
          </mxGeometry>
        </mxCell>
        <mxCell id="6QwXeuThkFD-9IxJBqtr-486" value="" style="endArrow=none;html=1;rounded=0;strokeWidth=6;strokeColor=#52A1F0;" edge="1" parent="1">
          <mxGeometry width="50" height="50" relative="1" as="geometry">
            <mxPoint x="575" y="2879.7599999999998" as="sourcePoint" />
            <mxPoint x="630" y="2879.7599999999998" as="targetPoint" />
          </mxGeometry>
        </mxCell>
        <mxCell id="6QwXeuThkFD-9IxJBqtr-487" value="" style="endArrow=none;html=1;rounded=0;strokeWidth=6;strokeColor=#52A1F0;" edge="1" parent="1">
          <mxGeometry width="50" height="50" relative="1" as="geometry">
            <mxPoint x="575" y="3119.7599999999998" as="sourcePoint" />
            <mxPoint x="630" y="3119.7599999999998" as="targetPoint" />
          </mxGeometry>
        </mxCell>
        <mxCell id="6QwXeuThkFD-9IxJBqtr-488" value="" style="endArrow=none;html=1;rounded=0;strokeWidth=6;strokeColor=#52A1F0;" edge="1" parent="1">
          <mxGeometry width="50" height="50" relative="1" as="geometry">
            <mxPoint x="1110" y="2879.71" as="sourcePoint" />
            <mxPoint x="1225" y="2879.71" as="targetPoint" />
          </mxGeometry>
        </mxCell>
        <mxCell id="6QwXeuThkFD-9IxJBqtr-489" value="" style="endArrow=none;html=1;rounded=0;strokeWidth=6;strokeColor=#52A1F0;" edge="1" parent="1">
          <mxGeometry width="50" height="50" relative="1" as="geometry">
            <mxPoint x="1110" y="3119.71" as="sourcePoint" />
            <mxPoint x="1225" y="3119.71" as="targetPoint" />
          </mxGeometry>
        </mxCell>
        <mxCell id="6QwXeuThkFD-9IxJBqtr-490" value="" style="endArrow=none;html=1;rounded=0;strokeWidth=6;strokeColor=#52A1F0;" edge="1" parent="1">
          <mxGeometry width="50" height="50" relative="1" as="geometry">
            <mxPoint x="1295" y="3119.8599999999997" as="sourcePoint" />
            <mxPoint x="1420" y="3120" as="targetPoint" />
          </mxGeometry>
        </mxCell>
        <mxCell id="6QwXeuThkFD-9IxJBqtr-491" value="" style="endArrow=none;html=1;rounded=0;strokeWidth=6;strokeColor=#52A1F0;" edge="1" parent="1">
          <mxGeometry width="50" height="50" relative="1" as="geometry">
            <mxPoint x="1295" y="2879.8599999999997" as="sourcePoint" />
            <mxPoint x="1420" y="2880" as="targetPoint" />
          </mxGeometry>
        </mxCell>
        <mxCell id="6QwXeuThkFD-9IxJBqtr-492" value="" style="endArrow=none;html=1;rounded=0;strokeWidth=6;strokeColor=#52A1F0;" edge="1" parent="1">
          <mxGeometry width="50" height="50" relative="1" as="geometry">
            <mxPoint x="1580" y="2879.58" as="sourcePoint" />
            <mxPoint x="1690" y="2880" as="targetPoint" />
          </mxGeometry>
        </mxCell>
        <mxCell id="6QwXeuThkFD-9IxJBqtr-493" value="" style="endArrow=none;html=1;rounded=0;strokeWidth=6;strokeColor=#52A1F0;" edge="1" parent="1">
          <mxGeometry width="50" height="50" relative="1" as="geometry">
            <mxPoint x="1580" y="3119.79" as="sourcePoint" />
            <mxPoint x="1690" y="3120.21" as="targetPoint" />
          </mxGeometry>
        </mxCell>
        <mxCell id="6QwXeuThkFD-9IxJBqtr-495" value="" style="rounded=0;whiteSpace=wrap;html=1;strokeColor=#FFFFFF;fillColor=none;strokeWidth=6;" vertex="1" parent="1">
          <mxGeometry x="740" y="2800" width="80" height="40" as="geometry" />
        </mxCell>
        <mxCell id="6QwXeuThkFD-9IxJBqtr-497" value="" style="rounded=0;whiteSpace=wrap;html=1;strokeColor=#FFFFFF;fillColor=none;strokeWidth=6;" vertex="1" parent="1">
          <mxGeometry x="740" y="3160" width="80" height="40" as="geometry" />
        </mxCell>
        <mxCell id="6QwXeuThkFD-9IxJBqtr-498" value="" style="rounded=0;whiteSpace=wrap;html=1;strokeColor=#FFFFFF;fillColor=none;strokeWidth=6;" vertex="1" parent="1">
          <mxGeometry x="1220" y="3160" width="80" height="40" as="geometry" />
        </mxCell>
        <mxCell id="6QwXeuThkFD-9IxJBqtr-499" value="" style="rounded=0;whiteSpace=wrap;html=1;strokeColor=#FFFFFF;fillColor=none;strokeWidth=6;" vertex="1" parent="1">
          <mxGeometry x="1220" y="2800" width="80" height="40" as="geometry" />
        </mxCell>
        <mxCell id="6QwXeuThkFD-9IxJBqtr-504" value="" style="endArrow=none;html=1;rounded=0;strokeWidth=6;strokeColor=#5D5C5E;" edge="1" parent="1">
          <mxGeometry width="50" height="50" relative="1" as="geometry">
            <mxPoint x="1110" y="3179.57" as="sourcePoint" />
            <mxPoint x="1210" y="3179.76" as="targetPoint" />
          </mxGeometry>
        </mxCell>
        <mxCell id="6QwXeuThkFD-9IxJBqtr-505" value="" style="endArrow=none;html=1;rounded=0;strokeWidth=6;strokeColor=#5D5C5E;" edge="1" parent="1">
          <mxGeometry width="50" height="50" relative="1" as="geometry">
            <mxPoint x="830" y="3179.57" as="sourcePoint" />
            <mxPoint x="930" y="3179.76" as="targetPoint" />
          </mxGeometry>
        </mxCell>
        <mxCell id="6QwXeuThkFD-9IxJBqtr-506" value="" style="endArrow=none;html=1;rounded=0;strokeWidth=6;strokeColor=#5D5C5E;" edge="1" parent="1">
          <mxGeometry width="50" height="50" relative="1" as="geometry">
            <mxPoint x="1110" y="2819.6400000000003" as="sourcePoint" />
            <mxPoint x="1210" y="2819.8300000000004" as="targetPoint" />
          </mxGeometry>
        </mxCell>
        <mxCell id="6QwXeuThkFD-9IxJBqtr-507" value="" style="endArrow=none;html=1;rounded=0;strokeWidth=6;strokeColor=#5D5C5E;" edge="1" parent="1">
          <mxGeometry width="50" height="50" relative="1" as="geometry">
            <mxPoint x="830" y="2819.6400000000003" as="sourcePoint" />
            <mxPoint x="930" y="2819.8300000000004" as="targetPoint" />
          </mxGeometry>
        </mxCell>
        <mxCell id="6QwXeuThkFD-9IxJBqtr-508" value="" style="endArrow=none;html=1;rounded=0;strokeWidth=6;strokeColor=#5D5C5E;" edge="1" parent="1">
          <mxGeometry width="50" height="50" relative="1" as="geometry">
            <mxPoint x="1310" y="2819.76" as="sourcePoint" />
            <mxPoint x="1410" y="2819.9500000000003" as="targetPoint" />
          </mxGeometry>
        </mxCell>
        <mxCell id="6QwXeuThkFD-9IxJBqtr-509" value="" style="endArrow=none;html=1;rounded=0;strokeWidth=6;strokeColor=#5D5C5E;" edge="1" parent="1">
          <mxGeometry width="50" height="50" relative="1" as="geometry">
            <mxPoint x="1310" y="3179.76" as="sourcePoint" />
            <mxPoint x="1410" y="3179.9500000000003" as="targetPoint" />
          </mxGeometry>
        </mxCell>
      </root>
    </mxGraphModel>
  </diagram>
</mxfile>
